<svg width="150" height="auto" viewBox="0 0 652 652" fill="none" xmlns="http://www.w3.org/2000/svg">
<path d="M343.7 349.401C352.9 349.401 357.7 346.301 357.7 339.801C357.7 333.401 352.7 329.901 343.1 329.901C339.5 329.901 335.3 330.201 330.6 330.901V309.401C334.4 309.801 338 310.001 341.6 310.001C351.5 310.001 356.5 307.001 356.5 300.201C356.5 293.601 352 290.401 342.6 290.401C336.5 290.401 328.8 292.101 319.3 295.101V272.701C327.7 269.701 337.9 268.301 349.9 268.301C375.9 268.301 390.9 279.801 390.9 297.801C390.9 308.801 383.9 316.901 371.6 319.601C385.2 322.401 392.2 330.201 392.2 342.101C392.2 360.801 376.9 371.701 347.8 371.701C338 371.701 328.4 370.301 318.5 367.901V344.801C328.3 347.601 336.5 349.301 343.7 349.401ZM452.3 305.001C472.8 305.001 486.4 317.901 486.4 336.901C486.4 357.301 470.8 371.501 446.3 371.501C417.4 371.501 398.8 352.901 398.8 322.501C398.8 287.801 418.5 268.301 454 268.301C461.6 268.301 469.7 269.201 478.1 271.001V293.501C470.7 291.101 462.9 289.901 455.1 290.001C439.4 290.001 432.1 296.501 431.7 311.301C437.6 306.701 443.9 305.101 452.3 305.001ZM455.1 336.201C455.1 328.001 450.6 322.701 444 322.701C437.4 322.701 433 327.801 433 336.201C433 344.401 437.4 349.501 444 349.501C450.7 349.501 455.1 344.401 455.1 336.201ZM496.6 270.801H563.6V294.301H527.9V309.201C530.8 309.101 532.7 308.901 533.4 308.901C555.5 308.901 567.5 320.401 567.5 339.801C567.5 359.801 552.9 371.701 524.4 371.701C514.5 371.701 504.7 370.201 494.8 367.601V345.201C502.4 347.301 509 348.301 514.6 348.301C526.1 348.301 532.2 344.301 532.2 337.001C532.2 328.801 525.9 324.701 512.9 324.701C507.4 324.701 502 325.701 496.4 327.101L496.6 270.801Z" fill="#FFE418"/>
<path d="M68.3984 263.102H102.398V304.802C107.198 298.002 113.898 294.802 122.798 294.802C142.598 294.802 153.698 308.902 153.698 334.102C153.698 358.102 142.398 372.402 123.598 372.402C112.098 372.402 104.398 368.102 99.9984 358.802V371.402H68.3984V263.102ZM101.398 333.402C101.398 344.402 103.798 349.702 109.798 349.702C115.698 349.702 118.398 344.402 118.398 333.402C118.398 322.502 115.898 317.102 109.798 317.102C103.698 317.102 101.398 322.502 101.398 333.402ZM240.598 340.402H193.498C194.298 348.502 200.398 352.302 211.898 352.302C219.898 352.302 228.198 350.702 236.198 347.602V366.502C228.298 369.802 217.598 371.602 204.998 371.602C175.998 371.602 160.398 357.402 160.398 332.402C160.398 308.002 175.698 293.302 201.298 293.302C229.598 293.302 240.698 306.802 240.698 335.502L240.598 340.402ZM210.998 326.002V323.702C210.998 315.302 207.998 310.502 202.198 310.502C196.298 310.502 193.198 315.302 193.198 323.902V326.002H210.998ZM307.698 295.302V317.002H291.898V334.802C291.898 343.902 293.298 348.202 300.098 348.202C301.898 348.202 304.398 347.902 307.298 347.202V368.502C299.898 370.802 292.598 371.602 284.798 371.602C275.198 371.602 267.898 368.502 263.598 363.102C257.998 356.002 257.898 347.002 257.898 335.102V317.102H245.698V295.402H257.798V278.902L291.798 268.002V295.402L307.698 295.302Z" fill="white"/>
</svg>
