<svg width="150" height="auto" viewBox="0 0 376 128" fill="none" xmlns="http://www.w3.org/2000/svg">
<g clip-path="url(#clip0_151_104)">
<path fill-rule="evenodd" clip-rule="evenodd" d="M58.1287 0.165052C35.5666 2.59679 16.589 15.6163 6.63243 35.4941C2.11899 44.5052 0.00133707 53.5951 1.00418e-06 63.966C-0.00133506 72.5197 1.3305 79.6743 4.36202 87.3991C11.7424 106.206 28.1884 120.806 47.7177 125.888C53.5346 127.402 58.2196 128 64.2523 128C79.8067 128 93.9792 122.847 105.955 112.837C116.629 103.916 124.606 90.5705 127.362 77.0243C130.608 61.0654 127.795 44.6479 119.463 30.9224C113.146 20.5163 103.968 12.0924 93.0776 6.70649C86.7932 3.5983 80.5318 1.61125 73.8067 0.590912C70.2742 0.0549316 61.3896 -0.186359 58.1287 0.165052ZM20.0509 44.3809V54.7076L21.3915 53.4728C25.1064 50.0507 29.1181 48.456 34.0132 48.456C38.4091 48.456 41.9737 49.4989 45.4221 51.794C54.0319 57.5245 57.0155 69.1419 52.3324 78.7005C51.0289 81.3609 49.4741 83.4547 47.562 85.1251C38.589 92.9639 24.7456 91.593 17.565 82.1547C16.1788 80.3328 14.8986 77.7464 14.1003 75.1553L13.4862 73.1612L13.4203 53.6075L13.3546 34.0539H16.7028H20.0509V44.3809ZM107.563 44.6893V50.2286H112.239H116.915V53.3306V56.4326H112.226H107.536L107.613 67.2342C107.682 76.9403 107.73 78.1485 108.089 79.1482C109.168 82.1536 111.36 83.6614 114.981 83.8894L117.027 84.0182L117.089 87.043L117.15 90.0682L116.027 90.2219C113.927 90.5093 110.164 89.8619 108.173 88.871C104.435 87.0094 102.051 83.7405 101.198 79.3042C100.941 77.9682 100.883 74.098 100.883 58.4072V39.15H104.223H107.563V44.6893ZM361.913 61.6949C361.991 81.1752 361.925 80.2226 363.423 83.4255C364.268 85.2304 366.396 87.3732 368.171 88.2047C369.922 89.025 372.245 89.4779 374.303 89.4001L376 89.3359V85.6799V82.024L374.553 81.8979C372.974 81.7603 372.317 81.4967 371.374 80.621C370.101 79.4389 370.099 79.4137 370.099 60.9344V44.0246H365.971H361.842L361.913 61.6949ZM242.839 46.4231C240.975 47.3007 240.501 48.4077 240.501 51.8833V54.4384H244.644H248.786L248.701 51.7242C248.601 48.5564 248.269 47.6309 246.911 46.7362C245.756 45.976 244.065 45.8459 242.839 46.4231ZM81.9852 48.7855C85.4329 49.4872 88.7459 51.2771 91.4233 53.8845C94.0293 56.4224 95.6636 58.9778 96.7925 62.2798C97.2526 63.6252 97.9881 66.894 97.9876 67.5909C97.9876 67.7726 96.5331 67.8448 92.8104 67.8484C88.2424 67.8528 87.3457 67.9144 85.1884 68.3713C80.8838 69.2828 77.1774 70.8145 73.7179 73.1113C71.8057 74.3809 68.2532 77.8618 67.5925 79.1132L67.1471 79.9568L68.0378 80.7192C69.4253 81.9068 71.3165 82.9874 73.093 83.6074C75.2964 84.3764 79.5705 84.5829 81.7325 84.025C84.0142 83.4361 85.8529 82.4171 87.6552 80.7422C88.9692 79.5211 89.4921 78.8325 90.2307 77.3489L91.1577 75.4877L92.5129 75.4863C93.2584 75.4857 94.7107 75.4199 95.7404 75.3401L97.6124 75.195L97.4848 75.9771C97.2949 77.1413 96.2534 79.6078 95.2236 81.3316C93.4312 84.3326 89.6246 87.466 85.9633 88.955C83.3143 90.032 80.8117 90.4091 77.2789 90.2638C73.5509 90.1105 71.474 89.6057 68.4335 88.1143C62.9102 85.4052 59.0998 80.7715 57.517 74.8385C57.0396 73.0491 56.9512 72.2339 56.9512 69.616C56.9512 66.9751 57.0378 66.189 57.5339 64.3267C59.2285 57.9667 63.4444 52.9335 69.3354 50.2372C73.4678 48.3457 77.5323 47.8793 81.9852 48.7855ZM75.8901 54.4457C69.3345 55.5441 64.4661 60.7729 63.4974 67.7562C63.2899 69.2531 63.3393 71.2871 63.6041 72.1295C63.6624 72.3154 64.5042 71.6676 65.8467 70.4033C71.4804 65.0982 78.1099 62.2439 86.5757 61.4788C88.1985 61.3322 89.5261 61.1436 89.5261 61.0601C89.5261 60.9763 89.0572 60.2872 88.484 59.5284C85.5585 55.656 80.6033 53.6561 75.8901 54.4457ZM31.9684 54.6751C27.0343 55.4955 22.7692 59.1931 21.0512 64.1393C20.2431 66.4653 20.0436 70.2269 20.5967 72.7008C21.0831 74.8761 22.6186 77.9028 24.048 79.5039C30.4952 86.7246 41.6698 85.128 45.9525 76.374C48.2278 71.7234 48.2479 66.8338 46.0102 62.3042C43.9126 58.058 40.3771 55.4045 35.8412 54.6722C34.2257 54.4114 33.5503 54.4118 31.9684 54.6751ZM145.635 57.3173C140.158 58.1843 135.948 61.877 134.376 67.1943C134.037 68.3409 133.976 69.8414 133.897 78.9825L133.808 89.4568L137.887 89.3964L141.967 89.3359L142.078 79.1436L142.189 68.9513L142.807 67.906C143.847 66.1447 145.82 65.0738 148.025 65.0738C149.869 65.0738 151.094 65.472 152.182 66.4254C154.013 68.0294 153.982 67.8158 154.057 79.3098L154.123 89.4466H158.133H162.142L162.071 78.6451L162 67.8435L161.396 66.0709C159.926 61.7549 156.571 58.6616 152.266 57.6523C150.476 57.2329 147.21 57.0678 145.635 57.3173ZM180.67 57.3348C178.791 57.6226 176.364 58.4666 174.866 59.3526C172.25 60.9003 169.623 63.8844 168.367 66.7356C166.634 70.6707 166.568 76.101 168.205 80.1329C169.996 84.547 173.347 87.7897 177.68 89.304C179.391 89.9017 179.877 89.974 182.16 89.9715C184.353 89.9691 184.969 89.8836 186.451 89.3755C188.427 88.6977 189.702 87.9674 190.9 86.8279L191.735 86.0331V87.7399V89.4466H195.533H199.331L199.263 79.7529L199.195 70.0592L198.496 68.118C197.506 65.3619 196.57 63.9037 194.407 61.7427C191.477 58.8151 188.345 57.4658 183.925 57.2256C182.893 57.1695 181.428 57.2187 180.67 57.3348ZM217.79 57.3572C214.308 57.8517 211.637 59.2337 208.872 61.9718C207.282 63.5465 206.801 64.2002 205.939 65.9601C204.517 68.8643 204.129 70.5664 204.144 73.8259C204.161 77.7984 205.128 80.7708 207.399 83.8387C209.315 86.4251 212.676 88.6805 215.895 89.5399C217.793 90.0462 221.144 90.2168 223.127 89.908C229.368 88.9359 233.623 85.2847 235.477 79.3098L235.632 78.8112H231.318H227.004L226.295 79.8119C224.946 81.7151 222.178 82.9557 219.766 82.7381C216.071 82.4047 213.093 79.3468 212.398 75.1726C211.752 71.2938 213.896 66.91 217.231 65.2894C218.82 64.5175 221.234 64.4233 222.955 65.0663C224.284 65.5633 226.15 67.052 226.682 68.0398L226.993 68.619H231.149C233.435 68.619 235.364 68.5607 235.435 68.4896C235.643 68.2826 234.784 66.0204 233.898 64.4448C232.929 62.7205 230.616 60.3754 228.876 59.3526C227.211 58.3742 224.969 57.6248 222.838 57.3346C220.845 57.0632 219.829 57.0676 217.79 57.3572ZM267.391 57.3248C265.653 57.5956 263.216 58.4635 261.696 59.3526C259.667 60.5403 257.008 63.3352 255.936 65.4062C254.51 68.163 254.053 69.8771 253.928 72.9396C253.718 78.0685 255.215 82.0985 258.588 85.4812C260.349 87.2471 262.413 88.5207 264.884 89.3653C266.482 89.9115 266.975 89.9744 269.672 89.9753C272.335 89.9764 272.881 89.9091 274.464 89.3855C279.809 87.6174 283.721 83.3869 285.163 77.8142C285.736 75.5987 285.692 71.5302 285.07 69.2201C283.851 64.6936 280.715 60.8172 276.687 58.8559C275.707 58.3786 274.327 57.8424 273.621 57.6647C271.924 57.2373 268.981 57.0769 267.391 57.3248ZM302.294 57.3047C300.456 57.6038 299.274 57.9851 297.625 58.8105C295.528 59.8603 292.975 62.4103 292.007 64.424C290.53 67.4936 290.534 67.4586 290.439 78.9825L290.353 89.4568L294.431 89.3964L298.508 89.3359L298.62 79.1436L298.731 68.9513L299.348 67.9064C300.432 66.0727 302.27 65.0738 304.561 65.0738C306.411 65.0738 307.635 65.4713 308.724 66.4254C310.555 68.0294 310.524 67.8158 310.599 79.3098L310.665 89.4466H314.675H318.684L318.617 78.6451L318.549 67.8435L317.868 65.9504C317.049 63.674 315.898 61.8874 314.373 60.5232C313.068 59.3553 310.184 57.9129 308.44 57.5557C306.779 57.2154 303.632 57.0869 302.294 57.3047ZM337.144 57.343C333.932 57.8307 331.159 59.1716 328.73 61.411C325.285 64.5875 323.564 68.689 323.561 73.735C323.556 80.9042 327.851 87.1674 334.253 89.3268C335.874 89.8732 336.488 89.964 338.59 89.9684C342.169 89.976 345.126 88.957 347.293 86.9686L348.277 86.0666V87.7567V89.4466H352.062H355.848L355.846 80.4176C355.844 70.5746 355.734 69.4935 354.431 66.5608C352.52 62.2623 348.241 58.6782 343.807 57.6627C341.85 57.2145 338.918 57.0738 337.144 57.343ZM240.555 73.6597L240.612 89.3359H244.621H248.629L248.686 73.6597L248.743 57.9836H244.621H240.498L240.555 73.6597ZM185.802 65.2148C188.695 66.2231 190.961 69.453 191.228 72.948C191.45 75.8697 190.479 78.486 188.468 80.3782C186.717 82.0262 185.601 82.465 183.162 82.4647C181.389 82.4647 181.009 82.3898 179.871 81.8177C176.528 80.1362 174.584 76.1061 175.241 72.2195C176.172 66.715 180.972 63.5313 185.802 65.2148ZM272.678 65.2622C275.869 66.7695 277.679 70.3022 277.405 74.4906C277.177 77.9772 275.633 80.5291 272.915 81.9117C271.556 82.6028 271.211 82.6839 269.693 82.6712C268.366 82.6604 267.725 82.5343 266.773 82.0976C260.839 79.3762 260.22 69.4926 265.751 65.7937C267.114 64.882 267.843 64.6755 269.783 64.6509C271.062 64.6347 271.582 64.7446 272.678 65.2622ZM342.36 65.2205C345.72 66.3915 348.076 70.4511 347.766 74.5316C347.534 77.5875 345.57 80.5798 342.96 81.8552C341.874 82.3858 341.441 82.4672 339.704 82.4672C337.966 82.4672 337.533 82.3858 336.447 81.8552C333.145 80.2415 331.176 76.259 331.756 72.3675C332.59 66.779 337.445 63.5069 342.36 65.2205Z" fill="#E5E5E5"/>
</g>
<defs>
<clipPath id="clip0_151_104">
<rect width="376" height="128" fill="white"/>
</clipPath>
</defs>
</svg>
