<svg width="150" height="auto" viewBox="0 0 678 474" fill="none" xmlns="http://www.w3.org/2000/svg">
<path fill-rule="evenodd" clip-rule="evenodd" d="M181 275.499L141.3 315.199C137.1 319.399 131.4 321.199 126 320.599C121.9 320.199 117.9 318.399 114.7 315.199L75.0002 275.499C71.3002 271.799 69.5002 266.999 69.5002 262.199C69.5002 257.399 71.3002 252.599 75.0002 248.899L114.7 209.199C118.8 205.099 124.3 203.299 129.6 203.799C133.9 204.199 138 205.999 141.3 209.199L181 248.899C184.7 252.599 186.5 257.399 186.5 262.199C186.5 266.999 184.7 271.799 181 275.499ZM203 248.199L202.8 247.699C202.7 247.299 202.5 246.899 202.4 246.499L178.3 181.599L163.8 202.399L128 134.199C128 134.199 71.5002 218.199 57.2002 239.699C46.7002 255.399 48.3002 276.899 62.2002 290.799L99.3002 327.899C115.1 343.699 140.7 343.699 156.5 327.899L193.6 290.799C205.2 279.299 208.3 262.599 203 248.199Z" fill="#F12C4C"/>
<path fill-rule="evenodd" clip-rule="evenodd" d="M128.001 223.699C121.501 223.699 116.301 228.899 116.301 235.399C116.301 241.899 121.501 247.099 128.001 247.099C134.501 247.099 139.701 241.899 139.701 235.399C139.701 228.899 134.401 223.699 128.001 223.699Z" fill="#F12C4C"/>
<path fill-rule="evenodd" clip-rule="evenodd" d="M128.001 277.199C121.501 277.199 116.301 282.399 116.301 288.899C116.301 295.399 121.501 300.599 128.001 300.599C134.501 300.599 139.701 295.399 139.701 288.899C139.701 282.499 134.401 277.199 128.001 277.199Z" fill="#F12C4C"/>
<path fill-rule="evenodd" clip-rule="evenodd" d="M154.7 250.5C148.2 250.5 143 255.7 143 262.2C143 268.7 148.2 273.9 154.7 273.9C161.2 273.9 166.4 268.7 166.4 262.2C166.4 255.7 161.2 250.5 154.7 250.5Z" fill="#F12C4C"/>
<path fill-rule="evenodd" clip-rule="evenodd" d="M89.5 262.2C89.5 268.7 94.7 273.9 101.2 273.9C107.7 273.9 112.9 268.7 112.9 262.2C112.9 255.7 107.7 250.5 101.2 250.5C94.7 250.5 89.5 255.7 89.5 262.2Z" fill="#F12C4C"/>
<path fill-rule="evenodd" clip-rule="evenodd" d="M290.2 240.601C287.6 240.601 285 241.101 282.5 241.901C280 242.801 277.8 244.201 275.8 246.001C273.8 247.901 272.2 250.301 271.1 253.101C269.9 256.001 269.3 259.301 269.3 263.201C269.3 267.201 269.9 270.601 271.1 273.401C272.3 276.201 273.9 278.501 275.8 280.301C277.7 282.101 279.9 283.501 282.4 284.401C284.9 285.301 287.5 285.701 290.1 285.701C293 285.701 295.7 285.201 298.2 284.101C300.7 283.001 303 281.501 304.9 279.501C306.8 277.501 308.3 275.201 309.4 272.401C310.5 269.601 311.1 266.501 311.1 263.001C311.1 259.601 310.5 256.501 309.4 253.601C308.3 250.801 306.8 248.401 304.9 246.501C303 244.601 300.7 243.101 298.2 242.101C295.8 241.101 293.1 240.601 290.2 240.601ZM269.7 230.201C275.6 223.701 283.7 220.401 294.2 220.401C300 220.401 305.3 221.501 310.1 223.601C315 225.801 319.2 228.701 322.7 232.501C326.3 236.301 329 240.801 331 246.101C333 251.301 334 257.001 334 263.201C334 269.401 333 275.101 331 280.301C329.1 285.601 326.3 290.101 322.9 293.901C319.4 297.701 315.2 300.701 310.3 302.801C305.4 305.001 300 306.001 294.3 306.001C288.7 306.001 283.6 305.001 279.1 303.001C274.6 300.901 270.9 298.001 268 294.101V304.001H247.5V198.301H269.8V230.201H269.7Z" fill="white"/>
<path fill-rule="evenodd" clip-rule="evenodd" d="M346.301 304.201H368.601V198.301H346.301V304.201Z" fill="white"/>
<path fill-rule="evenodd" clip-rule="evenodd" d="M417.998 289.798C422.898 289.798 426.998 288.298 430.298 285.298C433.698 282.298 435.398 278.398 435.398 273.598V272.598H417.898C410.298 272.598 406.398 275.398 406.398 280.898C406.398 283.798 407.498 285.998 409.698 287.498C411.898 288.998 414.698 289.798 417.998 289.798ZM422.498 220.398C427.698 220.398 432.498 221.098 436.698 222.698C440.998 224.198 444.698 226.398 447.798 229.298C450.898 232.198 453.298 235.898 454.998 240.198C456.798 244.598 457.598 249.698 457.598 255.498V304.198H437.298V296.298C434.398 299.398 430.898 301.798 426.698 303.598C422.398 305.398 417.598 306.198 412.198 306.198C407.798 306.198 403.798 305.598 400.298 304.298C396.798 302.998 393.798 301.298 391.298 299.198C388.898 296.998 386.998 294.498 385.798 291.498C384.498 288.498 383.898 285.298 383.898 281.698C383.898 274.198 386.698 268.298 392.298 264.098C397.898 259.898 405.398 257.798 414.998 257.798H435.498V254.198C435.498 249.698 434.198 246.198 431.698 243.598C429.198 241.098 425.298 239.798 420.098 239.798C415.798 239.798 411.998 240.798 408.598 242.798C405.298 244.798 401.798 247.598 398.498 251.098L386.998 237.398C396.198 225.998 408.098 220.398 422.498 220.398Z" fill="white"/>
<path fill-rule="evenodd" clip-rule="evenodd" d="M588.401 238.498C583.601 238.498 579.401 239.898 575.801 242.898C572.301 245.798 569.901 249.898 568.501 254.998H606.101C605.901 249.698 604.101 245.598 600.701 242.798C597.201 239.898 593.101 238.498 588.401 238.498ZM589.301 220.398C595.001 220.398 600.301 221.398 605.001 223.398C609.801 225.398 613.801 228.098 617.101 231.498C620.501 234.898 623.001 238.898 624.901 243.598C626.701 248.198 627.701 253.198 627.701 258.498C627.701 260.798 627.501 263.098 627.201 265.298C626.901 267.498 626.501 269.298 626.201 270.798H568.601C570.001 276.098 572.801 280.098 576.901 282.898C581.001 285.698 586.001 286.998 592.001 286.998C596.401 286.998 600.501 286.198 604.101 284.798C607.801 283.298 611.401 281.298 614.801 278.798L623.901 293.998C619.301 297.898 614.301 300.898 608.901 302.998C603.501 305.198 597.601 306.198 591.301 306.198C584.801 306.198 578.801 305.098 573.301 302.898C567.801 300.698 563.001 297.598 559.101 293.798C555.101 289.898 552.001 285.398 549.701 280.198C547.401 274.998 546.301 269.398 546.301 263.298C546.301 257.198 547.401 251.598 549.601 246.398C551.801 241.198 554.901 236.698 558.701 232.798C562.601 228.898 567.201 225.898 572.401 223.698C577.501 221.498 583.201 220.398 589.301 220.398Z" fill="white"/>
<path fill-rule="evenodd" clip-rule="evenodd" d="M536.301 222.301H471.301V241.201H506.701L471.301 288.801V304.201H536.201V285.301H498.401L536.301 235.701V222.301Z" fill="white"/>
</svg>
