<svg width="150" height="auto" viewBox="0 0 660 106" fill="none" xmlns="http://www.w3.org/2000/svg">
<g clip-path="url(#clip0_151_73)">
<path d="M360.453 102.407V80.7539H382.267V102.407H360.453Z" fill="white"/>
<path d="M454.57 104.387C439.735 104.387 428.497 99.8111 420.856 90.659V101.379H396.227V0.730469H420.856V41.9066C428.497 32.7546 439.735 28.1786 454.57 28.1786C461.501 28.1786 467.324 28.9228 472.021 30.4032C476.719 31.8837 480.516 34.0609 483.411 36.9426C486.306 39.8165 488.372 43.3474 489.6 47.5276C490.829 51.7077 491.443 56.4579 491.443 61.7781V70.9301C491.443 76.2424 490.829 80.9767 489.6 85.1093C488.372 89.2499 486.306 92.7571 483.411 95.631C480.516 98.5048 476.711 100.69 472.021 102.17C467.324 103.651 461.509 104.395 454.57 104.395V104.387ZM448.509 87.6586C452.193 87.6586 455.224 87.2232 457.593 86.3523C459.962 85.4814 461.828 84.2859 463.192 82.7579C464.556 81.2378 465.521 79.4487 466.087 77.3982C466.654 75.3557 466.941 73.1943 466.941 70.9301V61.7781C466.941 59.5138 466.654 57.3604 466.087 55.3099C465.513 53.2674 464.548 51.4781 463.192 49.9502C461.828 48.4301 459.962 47.203 457.593 46.2925C455.224 45.3742 452.193 44.9229 448.509 44.9229C439.288 44.9229 432.373 46.5776 427.771 49.8868C423.161 53.1961 420.856 58.6904 420.856 66.354C420.856 80.557 430.076 87.6586 448.509 87.6586Z" fill="white"/>
<path d="M497.028 66.4878C497.028 62.5056 497.961 58.2067 499.835 53.5911C501.702 48.9756 504.693 44.6767 508.792 40.6944C512.9 36.7122 518.188 33.4108 524.664 30.7824C531.141 28.154 538.933 26.8477 548.057 26.8477C557.182 26.8477 564.655 28.1857 570.765 30.8537C576.874 33.5217 581.795 36.9418 585.536 41.1061C589.277 45.2704 591.941 49.8623 593.536 54.8895C595.131 59.9168 595.929 64.8253 595.929 69.623H520.963C521.33 72.7897 522.287 75.5528 523.835 77.9041C525.382 80.2554 527.368 82.2267 529.785 83.8101C532.201 85.3935 534.985 86.5969 538.127 87.4044C541.27 88.212 544.58 88.6236 548.042 88.6236C554.151 88.6236 559.208 87.8557 563.228 86.3119C567.239 84.776 570.159 82.3772 571.985 79.1154H595.921C594.366 83.0105 592.228 86.6048 589.492 89.9062C586.757 93.2155 583.407 96.0418 579.435 98.3931C575.471 100.744 570.861 102.604 565.62 103.958C560.372 105.32 554.518 105.993 548.042 105.993C539.563 105.993 532.13 104.948 525.741 102.874C519.36 100.791 514.048 97.9656 509.805 94.3872C505.562 90.8087 502.372 86.6286 500.226 81.8309C498.081 77.0332 497.012 71.9189 497.012 66.4878H497.028ZM548.049 44.2175C542.028 44.2175 536.788 45.2863 532.321 47.408C527.855 49.5377 524.616 52.7282 522.606 56.9796H571.993C570.9 54.6283 569.305 52.4986 567.208 50.5985C565.381 48.9676 562.94 47.503 559.886 46.1888C556.831 44.8746 552.883 44.2175 548.049 44.2175Z" fill="white"/>
<path d="M635.574 71.3713C635.574 75.0052 635.726 77.8157 636.045 79.8107C636.356 81.8058 637.273 83.2625 638.789 84.1967C640.304 85.123 642.625 85.6851 645.752 85.8593C648.878 86.0414 653.297 86.1285 659.008 86.1285V102.342C651.064 102.342 644.348 102.279 638.86 102.144C633.373 102.01 628.819 101.662 625.206 101.084C621.593 100.506 618.801 99.6031 616.839 98.3601C614.877 97.1172 613.425 95.3517 612.484 93.0479C611.543 90.744 610.985 87.8227 610.809 84.2759C610.626 80.737 610.538 76.4381 610.538 71.3871V44.9208H596.477V30.9632H610.538V0H635.574V30.9632H659.008V44.9208H635.574V71.3713Z" fill="white"/>
<path d="M261.586 103.032C265.414 99.8184 268.996 96.81 272.585 93.8094C282.882 85.2037 293.282 76.7009 303.459 67.9448C309.114 63.0758 314.259 57.6607 318.342 51.3508C323.303 43.6872 321.31 35.3665 314.953 30.9885C312.424 29.2467 309.051 28.3521 305.94 27.9088C301.465 27.2754 296.887 27.3071 292.349 27.2437C282.507 27.1092 272.665 27.0854 262.822 27.0458C261.777 27.0458 261.403 26.65 261.403 25.6287C261.427 18.3688 261.442 11.109 261.395 3.84914C261.387 2.46367 262.081 2.26575 263.221 2.27366C269.961 2.30533 276.692 2.2895 283.432 2.31325C289.765 2.337 296.106 2.20241 302.431 2.46367C314.817 2.97827 326.095 6.70715 335.379 15.1071C343.674 22.6123 347.032 32.081 345.867 43.2122C345.373 47.9624 344.511 52.578 342.749 57.0273C339.973 64.0417 335.674 70.0744 330.546 75.5609C323.391 83.2086 315.168 89.661 306.921 96.0816C304.337 98.0925 301.808 100.166 299.2 102.13C298.562 102.613 297.685 103.064 296.919 103.072C285.522 103.135 274.116 103.127 262.711 103.127C262.447 103.127 262.184 103.088 261.594 103.032H261.586Z" fill="url(#paint0_linear_151_73)"/>
<path d="M309.32 102.848C312.973 100.006 316.483 97.3453 319.904 94.5823C324.937 90.513 329.89 86.3487 334.923 82.2794C335.489 81.8202 336.319 81.464 337.044 81.4323C339.453 81.3294 341.878 81.4481 344.287 81.3769C345.523 81.3452 346.041 81.7015 346.033 83.0078C345.985 89.1751 346.001 95.3424 346.025 101.51C346.025 102.516 345.81 103.101 344.598 103.101C333.041 103.078 321.476 103.094 309.919 103.094C309.823 103.094 309.719 103.014 309.32 102.856V102.848Z" fill="url(#paint1_linear_151_73)"/>
<path d="M59.1971 22.2852C61.4383 26.6 63.4801 30.7089 65.6815 34.7227C69.3264 41.3571 73.2984 47.7936 78.722 53.2009C82.032 56.4943 85.7408 59.1624 90.5343 59.9303C94.1474 60.5082 97.593 59.7878 100.967 58.5844C106.414 56.6369 111.335 53.7234 116.089 50.4933C116.631 50.1291 117.182 49.7729 117.724 49.4166C117.916 49.472 118.107 49.5354 118.29 49.5908C118.099 51.475 118.306 53.5017 117.652 55.2118C115.1 61.8383 112.301 68.3698 109.501 74.9012C109.27 75.4396 108.392 75.9542 107.77 76.0255C106.271 76.1917 104.731 76.0809 103.216 76.0809C72.7481 76.0809 42.2802 76.065 11.8123 76.1205C10.0576 76.1205 9.11644 75.685 8.43849 73.9829C5.90216 67.5939 3.08667 61.3079 0.614144 54.8872C-0.0159518 53.2642 0.215349 51.3088 0 49.0128C2.2811 50.4854 4.07568 51.6888 5.91013 52.8209C10.9988 55.9481 16.2309 58.7586 22.2288 59.8591C27.5328 60.8328 32.1428 59.3207 36.3063 56.1698C41.5943 52.1638 45.4945 46.9465 48.8045 41.3413C52.2182 35.5619 55.257 29.5688 58.4633 23.6707C58.6707 23.2907 58.878 22.9027 59.1971 22.309V22.2852Z" fill="url(#paint2_linear_151_73)"/>
<path d="M0.191328 104.668C0.191328 100.108 0.167401 95.8091 0.239184 91.5182C0.239184 91.1856 0.861303 90.7344 1.292 90.576C1.73865 90.4098 2.28899 90.5206 2.79944 90.5206C40.3659 90.5206 77.9323 90.5206 115.499 90.5206C117.28 90.5206 118.171 91.4073 118.171 93.1807C118.171 96.3079 118.075 99.443 118.211 102.57C118.282 104.288 117.716 104.7 116.017 104.7C81.0429 104.652 46.0686 104.66 11.0944 104.66H0.191328V104.668Z" fill="url(#paint3_linear_151_73)"/>
<path d="M50.097 6.81605C49.1479 8.98529 48.2785 11.0279 47.3613 13.0467C43.5568 21.4624 39.513 29.7752 34.0894 37.3042C32.2709 39.8297 30.0297 42.0623 27.8842 44.3424C26.6719 45.6249 25.0607 46.0999 23.4017 45.3082C19.661 43.5348 15.8087 41.9039 12.3073 39.7268C8.40706 37.3042 4.81791 34.3829 1.16496 31.5882C0.638546 31.1844 0.2238 30.2977 0.2238 29.6327C0.159993 22.4203 0.191896 15.2159 0.167969 8.00359C0.167969 7.06147 0.391294 6.54688 1.46804 6.54688C17.4039 6.57062 33.3317 6.56272 49.2676 6.57855C49.4271 6.57855 49.5866 6.66564 50.0891 6.80814L50.097 6.81605Z" fill="url(#paint4_linear_151_73)"/>
<path d="M68.4648 6.68167C69.3581 6.63417 70.0201 6.57083 70.6821 6.57083C85.7725 6.57083 100.871 6.58667 115.961 6.53125C117.604 6.53125 118.226 6.89543 118.202 8.66091C118.107 15.5328 118.195 22.4126 118.123 29.2925C118.115 30.0842 117.796 31.1688 117.221 31.628C111.598 36.109 105.896 40.487 99.3634 43.6459C98.0554 44.2792 96.6596 44.7463 95.3037 45.2768C93.4214 46.0051 91.6906 45.6885 90.3666 44.2001C87.9499 41.4925 85.3578 38.872 83.3319 35.8873C77.358 27.0995 72.8596 17.52 68.752 7.75838C68.6483 7.51295 68.6084 7.23586 68.4648 6.68167Z" fill="url(#paint5_linear_151_73)"/>
<path d="M218.779 1.91797H145.289V103.128H165.986C166.896 103.128 167.35 102.709 167.35 101.854V63.1792H187.817C193.447 63.1792 198.002 58.9359 198.002 53.7028V44.2658C198.002 43.3316 197.547 42.8564 196.638 42.8564H167.35V23.2383H218.787C219.6 23.2383 219.999 22.8107 219.999 21.9636V3.19259C219.999 2.34548 219.6 1.91797 218.787 1.91797H218.779Z" fill="url(#paint6_linear_151_73)"/>
<path d="M253.059 3.19249V101.861C253.059 102.709 252.66 103.128 251.863 103.128H229.315C228.597 103.128 228.238 102.709 228.238 101.861V3.19249C228.238 2.34538 228.597 1.92578 229.315 1.92578H251.863C252.66 1.92578 253.059 2.34538 253.059 3.19249Z" fill="url(#paint7_linear_151_73)"/>
</g>
<defs>
<linearGradient id="paint0_linear_151_73" x1="0.000393177" y1="53.3142" x2="346.083" y2="53.3142" gradientUnits="userSpaceOnUse">
<stop offset="0.68" stop-color="#C2D51C"/>
<stop offset="1" stop-color="#79C100"/>
</linearGradient>
<linearGradient id="paint1_linear_151_73" x1="-0.000218356" y1="53.3113" x2="346.081" y2="53.3113" gradientUnits="userSpaceOnUse">
<stop offset="0.68" stop-color="#C2D51C"/>
<stop offset="1" stop-color="#79C100"/>
</linearGradient>
<linearGradient id="paint2_linear_151_73" x1="0" y1="53.3117" x2="346.082" y2="53.3117" gradientUnits="userSpaceOnUse">
<stop offset="0.68" stop-color="#C2D51C"/>
<stop offset="1" stop-color="#79C100"/>
</linearGradient>
<linearGradient id="paint3_linear_151_73" x1="-9.27727e-05" y1="53.3109" x2="346.082" y2="53.3109" gradientUnits="userSpaceOnUse">
<stop offset="0.68" stop-color="#C2D51C"/>
<stop offset="1" stop-color="#79C100"/>
</linearGradient>
<linearGradient id="paint4_linear_151_73" x1="0.000474809" y1="53.3123" x2="346.082" y2="53.3123" gradientUnits="userSpaceOnUse">
<stop offset="0.68" stop-color="#C2D51C"/>
<stop offset="1" stop-color="#79C100"/>
</linearGradient>
<linearGradient id="paint5_linear_151_73" x1="-0.000170661" y1="53.3125" x2="346.082" y2="53.3125" gradientUnits="userSpaceOnUse">
<stop offset="0.68" stop-color="#C2D51C"/>
<stop offset="1" stop-color="#79C100"/>
</linearGradient>
<linearGradient id="paint6_linear_151_73" x1="0.000326504" y1="53.3147" x2="346.082" y2="53.3147" gradientUnits="userSpaceOnUse">
<stop offset="0.68" stop-color="#C2D51C"/>
<stop offset="1" stop-color="#79C100"/>
</linearGradient>
<linearGradient id="paint7_linear_151_73" x1="0.00050632" y1="53.3147" x2="346.082" y2="53.3147" gradientUnits="userSpaceOnUse">
<stop offset="0.68" stop-color="#C2D51C"/>
<stop offset="1" stop-color="#79C100"/>
</linearGradient>
<clipPath id="clip0_151_73">
<rect width="660" height="106" fill="white"/>
</clipPath>
</defs>
</svg>
