<svg height="auto" viewBox="0 0 400 138" width="150" xmlns="http://www.w3.org/2000/svg" xmlns:xlink="http://www.w3.org/1999/xlink"><linearGradient id="a" x1=".006%" x2="100.082%" y1="49.991%" y2="49.991%"><stop offset=".06" stop-color="#f07422"/><stop offset=".83" stop-color="#af3424"/></linearGradient><linearGradient id="b" x1=".008%" x2="100.055%" y1="49.993%" y2="49.993%"><stop offset=".43" stop-color="#bdbec0"/><stop offset=".65" stop-color="#fff"/><stop offset="1" stop-color="#a8aaad"/></linearGradient><linearGradient id="c" x1="49.96%" x2="49.96%" y1="5.005%" y2="102.036%"><stop offset="0" stop-color="#595a5c" stop-opacity=".4"/><stop offset=".01" stop-color="#646667" stop-opacity=".46"/><stop offset=".03" stop-color="#858786" stop-opacity=".62"/><stop offset=".05" stop-color="#a1a3a1" stop-opacity=".76"/><stop offset=".07" stop-color="#b6b9b5" stop-opacity=".86"/><stop offset=".09" stop-color="#c5c9c3" stop-opacity=".94"/><stop offset=".11" stop-color="#ced2cc" stop-opacity=".98"/><stop offset=".13" stop-color="#d1d5cf"/><stop offset=".48" stop-color="#d2d3d4"/><stop offset=".69" stop-color="#424143" stop-opacity=".1"/><stop offset=".71" stop-color="#59595a" stop-opacity=".26"/><stop offset=".74" stop-color="#797b7a" stop-opacity=".48"/><stop offset=".78" stop-color="#949794" stop-opacity=".67"/><stop offset=".81" stop-color="#a8ada8" stop-opacity=".81"/><stop offset=".84" stop-color="#b7bcb7" stop-opacity=".92"/><stop offset=".87" stop-color="#c0c6c0" stop-opacity=".98"/><stop offset=".89" stop-color="#c3c9c3"/><stop offset="1" stop-color="#373531"/></linearGradient><linearGradient id="d" x1="52.872%" x2="32.875%" y1="45.575%" y2="95.4%"><stop offset="0" stop-color="#e05926"/><stop offset="1" stop-color="#fbb03b"/></linearGradient><linearGradient id="e"><stop offset="0" stop-color="#db8b27"/><stop offset="1" stop-color="#bc4026"/></linearGradient><linearGradient id="f" x1="-5.164%" x2="95.694%" xlink:href="#e" y1="84.711%" y2="42.064%"/><linearGradient id="g"><stop offset="0" stop-color="#e45b25"/><stop offset="1" stop-color="#fbb03b"/></linearGradient><linearGradient id="h" x1="50.744%" x2="49.943%" xlink:href="#g" y1="-25.669%" y2="60.753%"/><linearGradient id="i" x1="95.358%" x2="-7.071%" xlink:href="#g" y1="50.512%" y2="47.923%"/><linearGradient id="j" x1="-8.259%" x2="83.356%" xlink:href="#e" y1="21.451%" y2="58.014%"/><linearGradient id="k"><stop offset=".06" stop-color="#efa133"/><stop offset=".83" stop-color="#f26222"/></linearGradient><linearGradient id="l" x1="2.37%" x2="136.391%" xlink:href="#k" y1="15.426%" y2="143.176%"/><linearGradient id="m" x1="5.929%" x2="76.199%" xlink:href="#k" y1="111.964%" y2="5.938%"/><linearGradient id="n" x1="64.401%" x2="44.982%" xlink:href="#g" y1="81.316%" y2="32.089%"/><g fill="none"><path d="m165.569935 38.0672359c10.543881 0 15.401062 5.65635 13.402222 16.0085378-1.014355 5.1988033-4.172838 9.6305097-8.595012 12.0597653 4.217552 2.2518676 6.336323 6.5955176 5.057065 13.276414-2.268683 11.3447172-9.874269 16.5635006-21.097755 16.5635006h-23.336455l11.523312-57.9082177zm-11.823137 47.2358591c3.997679 0 6.476241-1.9316969 7.455672-6.5955176.979432-4.6638207-.829518-6.5955176-4.817204-6.5955176h-6.336322l-2.628475 13.1910352zm4.597331-24.0554963c3.30808 0 5.566769-2.3265742 6.326328-6.2646745.829519-4.108858-.529692-6.2753468-3.847766-6.2753468h-6.096462l-2.488555 12.5400213zm62.28385-23.1803628c.142438 1.7848475.041442 3.5823233-.299826 5.3361793-.405724 2.0740503-1.07839 4.0781335-1.998839 5.955176h-20.488109l-2.328648 11.7395945h16.720295c.134442 1.8310335.033564 3.6731015-.299826 5.47492-.389868 1.9569693-1.025235 3.8488148-1.888904 5.6243329h-16.680318l-2.478562 12.3906084h21.237674c.150661 1.8596708.022456 3.7331012-.37978 5.5496264-.339719 2.0210481-.973701 3.9728274-1.878909 5.7844184h-35.559361l11.533306-57.8548559zm44.354257 0c.101043 2.1079814-.077283 4.2206364-.529693 6.2753468-.422829 2.2125071-1.093953 4.362497-1.998839 6.4034152h-12.762593l-8.884843 44.52508c-2.408173.4889003-4.854459.7319031-7.30576.7257204-2.350801.0587138-4.699674-.1849454-6.995939-.7257204l8.884843-44.5570971h-13.192343c-.150454-2.0762993.004672-4.164951.459733-6.189968.407843-2.2167593 1.079575-4.3686974 1.99884-6.4034151zm17.65975 0c3.01379-.0953158 6.028615.1479275 8.99478.7257203l5.266943 56.4781217c-2.474673.545752-4.999437.7892229-7.525633.7257204-2.255501.07322-4.51022-.1707808-6.706107-.7257204l-.909472-10.6083244h-17.429884l-5.11703 10.6083244c-2.329314.5227261-4.705994.7661403-7.085887.7257204-2.225099.0536781-4.447745-.1901219-6.61616-.7257204l27.713914-56.4567769c3.111102-.5477489 6.26179-.7977633 9.414536-.7470651zm-3.168161 13.3511206c-.961697 3.3895452-2.223324 6.6736527-3.767813 9.8078975l-6.316334 12.8708645h11.443358l-1.059385-12.8708645c-.26904-3.2629875-.26904-6.54491 0-9.8078975zm39.976797 17.3745997c-.777587-4.9975616-1.155399-10.0567345-1.129344-15.1227321h-.429751c-.484432 5.3799415-1.261965 10.7251765-2.328648 16.0085379l-5.047071 25.6136606c-2.096117.5425081-4.250229.7865316-6.406282.7257204-1.956531.1030792-3.915489-.1421762-5.796635-.7257204l11.223485-56.4567769c3.188984-.5741519 6.420943-.831389 9.654397-.7684098 3.014175-.1145039 6.030934.1288954 8.994779.7257203l4.37746 26.1366062c.711193 5.4918457 1.061846 11.0300807 1.049391 16.5741729h.299826s.99942-8.6125934 2.788381-17.5346851l4.9971-25.176094c2.103803-.4936305 4.252318-.7370199 6.406282-.7257203 1.981874-.0745434 3.962959.1701076 5.876589.7257203l-11.293445 56.4781217c-3.108208.5718046-6.261647.8148877-9.414536.7257204-3.076017.0631606-6.150857-.1797958-9.184669-.7257204zm61.734169-31.7929562c14.54156 0 21.84732 10.3735326 17.629768 31.3660619s-14.611519 28.6339381-29.223039 28.6339381c-14.611519 0-21.717395-10.0853789-17.549814-31.0779082 4.137599-20.7577375 14.61152-28.9220918 29.143085-28.9220918zm-2.108776 11.5048026c-5.346896 0-9.114709 3.5325507-12.122963 18.4951974s-.529693 18.4204909 4.817204 18.4204909c5.346896 0 9.194663-3.5325507 12.132958-18.4204909 2.938294-14.8879402.669611-18.452508-4.827199-18.452508z" fill="#fff"/><path d="m348 37.5868061c-1.807761-.4410518-3.679337-.6354093-5.551702-.5765277-2.038349-.0089766-4.071542.1843771-6.062422.5765277l-3.385876 14.4131939 11.727617-.534136zm33.426343-.5868061c-11.984622 0-21.211277 4.3472144-26.426343 15l15.655226-.6499719c2.366838-4.0433314 5.17495-5.2335396 8.655004-5.2335396 3.480053 0 5.566079 1.0635903 6.017383 4.6004502l14.672387-.6246483c-1.243593-8.7113112-7.983062-13.0922904-18.573657-13.0922904zm-169.186714 18.5236052h-15.334765l2.144851-9.4420601h18.790357c.840143-1.511344 1.456864-3.1226802 1.833206-4.7896996.303859-1.4117377.396407-2.8562119.274981-4.2918455h-31.952774l-4.995485 22 29.276293-1.4592275c.025448-.6725269.01321-1.345841-.036664-2.0171673zm-29.703082-2.365616c2.101772-10.470377-3.005533-16.1579892-14.09238-16.1579892h-24.233431l-6.210736 30 35.84572-1.8635548c4.476422-2.4861788 7.65605-6.8686194 8.690827-11.978456zm-15.048687.8940754c-.788164 3.9748654-3.152658 6.3231598-6.652108 6.3231598h-6.410404l2.616706-12.6032316h6.420913c3.478433 0 4.907638 2.1543986 4.035402 6.3016158zm85.385962-5.703389h13.452253c.950064-1.8268123 1.654695-3.7512539 2.098636-5.7316543.469131-1.8399544.652798-3.7306705.545645-5.6170213h-42.339971c-.962623 1.8221991-1.667783 3.7480842-2.098635 5.7316544-.471715 1.8134474-.631013 3.6826154-.472193 5.5405992h13.840501l-2.528856 10.7277464 15.183628-.6973513zm64.680695 5.340838h.325545s0 1.7777594.059969 4.5583574l11.059969-.7293372-2.647196-19.7148959c-2.54075-.6357059-5.126569-.8955933-7.710281-.7749207-2.767768-.0807571-5.53523.1786513-8.267134.7749207l-3.375389 21.1963621 10.151869-.6837536c.308411-2.8831611.402648-4.6267328.402648-4.6267328zm-39.107865-3.8686698h.288369c-.231845 2.7529075-.26077 5.5209198-.086511 8.278637l13.35149-.7265553-1.816725-19.6579255c-2.852877-.5535659-5.752456-.7867957-8.651074-.6958557-3.031701-.0553757-6.061992.1775006-9.05479.6958557l-10.477411 21.285 13.322653-.7265553c1.263812-2.718497 2.308887-5.5461539 3.123999-8.4526009z" fill="#fff" opacity=".1"/><path d="m113.724796 78.4004485c-.516063-1.2494346-1.124808-2.456998-1.82095-3.6122072-.876754-1.4232881-1.840219-2.7876816-2.774781-4.1618909-.404656-.5889468-.857485-1.207341-1.242871-1.8944456-.550293-1.141394-.391878-2.5055463.404656-3.484602 7.55357-10.9544109 6.821336-21.8499271 4.923309-28.1516581-2.476107-8.2059924-10.270543-16.3923532-20.1075276-22.4486897-6.4372086-3.9061608-13.240848-7.14833391-20.3098555-9.67835942-5.0699997-1.92255894-10.296028-3.38747321-15.6177778-4.37783804-3.5578621-.70278774-7.2076326-.7791474-10.7908151-.22576295-5.0678292.48097324-10.4054288 1.5508933-15.3865461 2.53247134-5.8289671 1.12881474-12.5250532 1.96315607-17.1593229 6.06615226-4.26815275 3.74962811-6.76352873 9.24646511-8.25690046 14.67459161-2.73250848 10.2382426-4.40838789 20.7391516-5.00038662 31.331971-.64865521 10.4931467-.75799743 21.0136832-.32757831 31.5184707.19762637 6.1162522.84171518 12.209043 1.92693126 18.2279045 1.43556379 7.734835 3.93093977 15.79359 8.60374803 22.173847 1.2522955 1.715253 2.7456184 3.233342 4.4319419 4.505444 4.374134 3.219576 9.923696 3.779075 15.1360451 4.269864 10.1260238.981578 20.6085298 4.21097 30.6382071.824526 2.6495304-.657658 5.2894263-1.413473 7.8618795-2.296893 4.9726546-1.715948 9.8431646-3.72503 14.5868696-6.017073 5.0276716-2.399982 9.8158783-5.28944 14.29783-8.628071 4.3438579-3.189402 8.2344859-6.974801 11.5615879-11.248885 3.009934-4.049781 5.108503-8.7246072 6.14691-13.6930131.125251-.5791311.308309-1.1680779.375752-1.7570247.542179-4.9203581-.181654-9.899773-2.100355-14.4488287zm-54.4936162 16.5199583c-1.5573768 1.1670673-3.1856751 2.2325721-4.875136 3.1901287-4.374134 2.5226555-9.027673 5.1042055-13.8931744 6.4685995-1.6435415.479329-3.3396697.746446-5.0485599.795078-.3468477 0-3.6515348-.058895-3.6997081-.304289-6.3203345-35.6116514 0-72.1067228 0-72.1067228.4528289-.8441571 4.8173282-.0687105 5.3086957 0 3.8281445.8599232 7.5506803 2.1504323 11.099124 3.8477859 3.3394376 1.3705448 6.5456917 3.0563894 9.5768484 5.0354953 3.7093427 2.5226556 8.1701885 6.6845464 8.6711907 11.5040946.4239248 4.0931804-.8382151 7.2538617-2.832589 10.7384637-.7033299 1.2269726-2.0425471 2.7484185-1.8113154 4.2698645.2697704 1.8355509 1.7824114 3.3275495 2.8133197 4.7508377.9366629 1.2687581 1.710481 2.6541699 2.3026828 4.1226277 2.7940504 7.1360723-2.2834135 13.6733821-7.6113785 17.6880362z" fill="url(#a)"/><path d="m113.712039 78.3836035c-.512136-1.2478055-1.120833-2.4521443-1.820336-3.6016316-.876459-1.4328016-1.849231-2.7969073-2.783478-4.1806404-.448441-.6174713-.863218-1.2596031-1.242451-1.9234872-.543106-1.1395717-.393107-2.4960116.385256-3.4838671 7.551024-10.9521004 6.819037-21.8355048 4.92165-28.1359066-2.465641-8.1748205-10.247819-16.3594547-20.1007497-22.4145138-6.4340748-3.9071898-13.2356067-7.14876774-20.3030093-9.67631805-5.0654143-1.92083177-10.286368-3.38541176-15.6028818-4.37691467-3.5599516-.70222358-7.211585-.77856369-10.796809-.22571533-5.0853837.4906855-10.4019212 1.58000731-15.371728 2.56137832-5.8366336 1.12857665-12.5208312 2.03143797-17.1631701 6.0648728-4.81570425 4.19045423-6.74198596 9.22488743-8.26374851 14.65186903-2.72316556 10.2272023-4.39200684 20.7159207-4.97943822 31.2959213-.65235612 10.5005616-.76487647 21.0287174-.3370993 31.5412641.20360917 6.1275274.8474255 12.2316294 1.92628171 18.2633147 1.43507987 7.733203 3.85256342 15.701936 8.56232222 22.120102 1.2809851 1.725603 2.810357 3.24422 4.5363934 4.504493 4.3726595 3.218897 9.9203508 3.778278 15.1309428 4.268964 10.1322418.981371 20.6304772 4.249336 30.6567735.863606 2.6390059-.657518 5.2876432-1.40336 7.8592293-2.296408 4.9757038-1.719845 9.8507442-3.728397 14.6012154-6.015804 5.0095513-2.417266 9.7797266-5.319084 14.2448532-8.665506 4.3445324-3.186106 8.2341834-6.971032 11.5576904-11.246512 2.99681-4.049 5.084608-8.7190446 6.115944-13.6803115.125209-.5790089.308205-1.1776452.385257-1.7664678.53238-4.9209589-.197721-9.8984652-2.11891-14.4457812zm-10.59455 30.7561675s-7.7051265 10.039425-32.2844811 19.696116c0 0-13.5899174 5.888226-21.4876725 4.023621-6.4773491-1.020733-12.0100445-5.306942-14.7071608-11.393717 0 0-6.2604156-8.557556-7.5510243-45.9870457 0 0 0-39.765153 6.741986-56.0755391 0 0 4.4208165-14.92665295 19.5710221-14.49484971 0 0 18.5115673.89304762 41.7232619 16.19262151 0 0 20.0718557 10.7950811 14.2352217 33.1899674-1.636946 4.1550841-3.734121 8.1061533-6.250784 11.776452-.702492 1.0482352-.602685 2.4516415.240785 3.38573 0 0 9.207627 10.3436504 8.832002 19.833508 0 0 1.011298 10.5791794-9.053524 19.8531356z" fill="#373531"/><path d="m113.675953 78.3820971c-.517066-1.24713-1.12868-2.4512991-1.829287-3.6015747-.876133-1.4229655-1.838916-2.7870496-2.782443-4.1707608-.447944-.6176973-.862554-1.2598002-1.24199-1.9234568-.513778-1.1388727-.32543-2.4789053.481391-3.4249307 5.815566-8.1288469 7.594425-18.5509713 4.813915-28.2041569-2.426213-8.1746913-10.253638-16.3591961-20.074024-22.4141595-6.4352839-3.9040424-13.2374985-7.14227443-20.305092-9.66635167-5.0620866-1.92535819-10.2814988-3.39002695-15.5970834-4.37684551-3.5575042-.71091195-7.2087016-.79059004-10.7927967-.23552532-5.0546104.49067775-10.3980556 1.5897959-15.3660155 2.5711514-5.8344646 1.11874526-12.5835729 1.96271099-17.1760475 6.0549634-5.43972355 4.8577097-6.7394805 9.2247417-8.24142187 14.641824-2.72210324 10.2337237-4.39031207 20.7287771-4.97758775 31.3150538-.64729752 10.4973019-.75977341 21.0217686-.33697402 31.5309521.20334138 6.1144451.84692736 12.205415 1.92556585 18.2237711 1.43454657 7.733082 3.92815436 15.79001 8.59765159 22.159008 1.2603866 1.723478 2.769854 3.242211 4.4769406 4.504421 4.3710345 3.22866 9.926292 3.778219 15.1253198 4.27871 10.1284764.981356 20.6228104 4.239456 30.6453807.85378 2.6380252-.647695 5.2856782-1.403339 7.8563087-2.286559 4.9755508-1.718941 9.8490112-3.730832 14.5957892-6.025523 5.03944-2.379839 9.8405321-5.252304 14.3358378-8.577047 4.3436575-3.196551 8.2317705-6.991235 11.5533955-11.275774 2.999271-4.068722 5.086224-8.7586391 6.113671-13.7389771.125162-.5789998.298463-1.1678131.365858-1.7566264.513878-4.9282653-.232409-9.9082033-2.166262-14.4553664zm-9.570062 32.5024939s-8.4436064 10.245351-33.9092149 20.274805c0 0-13.931469 5.789997-22.1440074 3.846913-6.7521599-.82358-12.5925891-5.180501-15.4045269-11.491673 0 0-6.4891569-8.89108-7.837053-47.7429445 0 0 0-41.3150664 6.9898041-58.2041945 0 0 4.4673127-15.14231526 20.2184415-14.7203324 0 0 19.3230534.5888133 43.4118823 16.4671452 0 0 21.4893153 11.6094355 15.4045273 34.8381201 0 0-1.213107 4.9067775-5.776698 11.5505542 0 0-1.213107 1.786067-.413997 2.8361174 0 0 9.62783 11.4622321 9.233089 21.344482.028883.0294406.673948 11.3739105-9.772247 21.0010075z" fill="url(#b)"/><path d="m111.082449 75.4824787c-.768055-1.1710842-1.486237-2.3620173-2.284217-3.5132526-1.117171-1.6573818-2.314141-2.8483149-2.723106-4.8332034-.033351-.9870873.193618-1.9656621.658334-2.8383905 6.204293-8.7930559 8.249116-13.7354281 7.381313-21.337551-2.443813-21.5955864-35.6996215-31.1230511-43.0609851-33.47514388-21.1265152-6.71884745-27.849495 1.08176418-31.5002525 12.70328618-1.1047789 3.2012018-1.9585142 6.4827876-2.5535354 9.8152734.4787879-.9031242 4.8876263.1587911 5.3863636.2580355 3.9277572.9173742 7.7562316 2.2136873 11.4310606 3.8705325 3.4421692 1.3830731 6.7479935 3.0808073 9.875 5.0713901 3.8203283 2.5406572 8.4087122 6.7287718 8.9772728 11.5718997.4388889 4.1186436-.8578283 7.3043895-2.9126263 10.8077177-.7281566 1.2504797-2.1046717 2.7788438-1.8752525 4.2972835.2792929 1.8459463 1.8353535 3.3643859 2.9026515 4.7835812.9312631 1.2939308 1.6984675 2.6972676 2.2842172 4.1781902 2.8926767 6.9471096-2.2842172 13.7453526-7.7703283 17.7846006-1.5974361 1.15946-3.2628409 2.2232577-4.9873738 3.185746-4.5085858 2.5307331-9.2964646 5.1309371-14.3137626 6.5005101-1.6946794.484949-3.4441227.755045-5.2068182.803879-.3491161 0-3.630808-.059546-3.750505-.297733.8378788 4.495773 1.5959596 7.582274 2.0747475 9.209883 3.4612373 11.90933 9.3762626 16.712761 19.9494949 15.879107 9.8650253-.803879 56.9358586-15.452356 56.9358586-41.1963597-.069823-4.9522967-2.254293-9.2198069-4.917551-13.2292816z" fill="#fbb03b"/><path d="m39.7398373 133.055782c-9.1715444-6.31678-12.1297651-17.966417-13.6883975-27.844995-.5725589-3.748743-1.0602942-7.4974861-1.5268236-11.2659077-.3180883-2.8140171-.5937647-5.6280342-.8058236-8.4420513-.7817958-9.6201748-.8491068-19.2788773-.2014559-28.9076305.2438677-3.3354958.5195442-6.6611524.8800442-9.9966482.4771324-4.368614 1.0072794-8.737228 1.8025-13.0664851 2.3220442-12.6925947 6.361765-27.54981801 20.7181478-32.69573044 1.0503073-.39433782 2.1461136-.67496927 3.265706-.83633376-5.5983531.51163948-10.7831915 1.40700856-16.2755153 2.38109141-6.3617649 1.13151038-13.5081475 2.06623635-18.5551476 6.16919139-5.51352965 4.5260415-7.76135326 9.1799929-9.41541214 14.5915643-3.01089136 10.2883311-4.85171755 20.8411221-5.49232372 31.4855063-.59378125 10.5634221-.59378125 21.1483862 0 31.7118083.21875776 6.085164.92759709 12.1466273 2.12058831 18.1336833 1.57983829 7.763146 3.97610308 15.959216 9.11852975 22.35471 1.3870439 1.724972 3.0413206 3.250145 4.9091619 4.526041 4.8243384 3.227265 10.9316327 3.7881 16.6678241 4.280061 11.1436916.983923 22.7008979 4.260383 33.73856.856013-9.2351621 2.085914-19.3079565 2.026879-27.2601627-3.433888z" fill="url(#c)"/><path d="m37.000009 31.6782426s-.0574434-8.9130515 9.0281811-22.47079313c0 0 6.2709-5.51618853 23.4177425.89130513 4.0210351 1.3369577 22.1061191 6.7244022 32.5512364 18.1331081 0 0 4.346547 4.5060427 6.002831 9.7746465l-38.8125625 13.9934908c-.0190984-.1576802-.0511268-.3133945-.095739-.4654594-1.2348378-3.7708133-3.637538-7.0150506-6.8357596-9.2299599-1.325586-1.014333-2.7100121-1.943692-4.1454957-2.7828528l-.4116774-.1881644c-2.0689303-1.167966-4.1974467-2.2192625-6.3762128-3.1492782 0 0-9.1047723-4.1792308-14.322544-4.5060427z" fill="url(#d)" opacity=".7"/><path d="m67 59s24.0709113-3.0733411 40.165127-3.0135817c0 0 4.114084-5.0454016 4.727676-9.9798215.328458-3.0438002-.099907-6.1122168-1.257361-9.0065968l-40.8088954 12.0543267c.265874 1.1246085.3032955 2.2795133.1106478 3.4148235v.3585564c-.4688361 2.20689-1.4687113 4.3080526-2.9371944 6.1722934z" fill="url(#f)" opacity=".85"/><path d="m106.520485 66.8812043s4.789426-5.0606166 5.479515-6.8812043l-42.0130465 3.6720328c-.8474463 1.4281285-1.8462928 2.8031107-2.9869535 4.111751z" fill="url(#h)"/><path d="m67.9402795 69.4092664 36.0597205-2.4092664c-.762981 2.2251028-1.069498 5.0444364-.846252 7.7837838l-36.153748-.2676963c.1175731-1.8453139.4404735-3.5990418.9402795-5.1068211z" fill="#cc5827" opacity=".85"/><path d="m67.0416337 67 36.3656083.1173992c.733653 1.5581288 1.65696 3.0282311 2.750817 4.3798916 1.105999 1.6435882 5.161327 7.2245635 5.841941 10.5027092 0 0-17.0153615-3.2420229-39.7025102-5.4906683 0 0-2.211997-4.5966285-3.4786962-5.8880192.0567179 0-2.1458261-2.3750753-1.7771599-3.6213125z" fill="url(#i)"/><path d="m68.9440005 78s22.1595917 1.9385965 42.3046745 5.3333333c0 0 3.40452 7.4824562-4.28083 16.6666667l-39.967845-12.8070175s3.5958974-4.1929825 1.9440005-9.1929825z" fill="url(#j)" opacity=".85"/><path d="m31.0091743 101.163772 13.9908257 21.836228c-2.1802229-.601132-4.1304081-1.634716-5.6651376-3.002481-1.3539286-1.0807-2.5118116-2.305559-3.440367-3.639372-1.003787-1.434122-1.8479658-2.934987-2.5229358-4.485525-.9205993-2.099581-1.6638359-4.245498-2.2247706-6.42349-.6651376-2.411084-1.146789-4.449132-1.146789-4.449132.312876.122921.6605913.17935 1.0091743.163772z" fill="url(#l)"/><path d="m39.6678291 28.656697s.2223191-4.8443866 4.6294682-11.9202427c2.3098793-3.3503196 4.8816799-6.6011551 7.7027027-9.7364543 0 0-5.8195292 1.9739922-9.4289451 8.2774166-1.7202997 3.0252523-3.1449541 6.1354572-4.2632955 9.3073255-.5639681 1.4500249-1.0007712 2.92476-1.3077594 4.4152579 0 0 .6800349-.4958821 2.6678291-.343303z" fill="url(#m)"/><path d="m69.6717963 86 38.3282037 15.584514s-3.413183 5.829485-11.6028871 11.990556c-.8412093.641778-1.6920877 1.27286-2.5719733 1.882549-1.6437424 1.144505-3.3745063 2.267617-5.3663353 3.44421-3.2930107 1.977683-6.6823601 3.752414-10.1525262 5.316063-5.8224719 2.656376-11.8476468 4.732565-18.0038132 6.203856-1.3826773.267407-6.4299332 1.47609-11.5061963-.684564l-11.7962686-25.671128c1.7806797.175413 3.5732145.139554 5.3469971-.106963 1.7501022-.37437 4.6798312-.877097 11.5061964-4.6528916 2.0788506-1.2300749 6.7683508-4.1501657 7.319488-4.5673216 2.3429239-1.5965495 4.4853554-3.5278272 6.3719188-5.7439149.7863616-.9280712 1.4981193-1.9301835 2.127196-2.9949649z" fill="url(#n)" opacity=".85"/></g></svg>