<svg width="150" height="auto" viewBox="0 0 177 40" fill="none" xmlns="http://www.w3.org/2000/svg">
<path d="M27.4863 23.1833L25.5543 39.1219C25.5104 39.6048 25.1153 39.9122 24.6323 39.9122H16.6411C16.1142 39.9122 15.8507 39.6488 15.8507 39.2536V39.1219L17.8266 22.9199C17.9144 22.3052 18.0461 21.6905 18.0461 21.0758C18.0461 20.1537 17.9583 19.5829 17.6509 19.1438C17.2558 18.573 16.5093 18.3535 15.5434 18.3535C14.1383 18.3535 12.2942 18.6169 12.2942 18.6169L9.70362 39.1219C9.65971 39.6048 9.30845 39.9122 8.78156 39.9122H0.79034C0.263447 39.9122 0 39.6488 0 39.2536V39.1219L2.85401 16.1142C3.07355 14.27 4.96158 13.7432 8.25467 13.1284C10.8452 12.6016 14.4457 12.1625 17.6948 12.1625C21.2075 12.1625 24.0176 12.5137 25.8178 13.9188C27.135 14.8848 27.9254 16.4654 27.9254 18.8804C27.9254 20.2415 27.6619 21.7783 27.4863 23.1833Z" fill="white"/>
<path d="M46.8497 19.2755C46.4106 18.573 45.5763 18.2656 44.303 18.2656C41.1416 18.2656 40.5269 20.0219 39.9122 24.7201C39.6488 26.5203 39.3414 28.4083 39.3414 30.2085C39.3414 31.5258 39.4732 32.36 39.9561 32.9747C40.483 33.4577 41.2295 33.7212 42.3711 33.7212C45.4885 33.7212 46.191 32.0527 46.8058 27.6619C47.0692 25.7299 47.3326 23.7541 47.3326 21.91C47.3326 20.7245 47.2448 19.8463 46.8497 19.2755ZM55.1921 32.36C53.4797 36.8825 49.8793 39.8683 41.6246 39.8683C37.8047 39.8683 35.1263 39.2096 33.3261 38.068C30.5599 36.3556 29.7695 33.5016 29.7695 29.9451C29.7695 26.3007 30.516 21.2953 32.0966 18.2656C34.0725 14.5335 37.6729 12.1185 45.0494 12.1185C49.3524 12.1185 52.1625 12.9089 53.9627 14.27C56.2898 16.0263 56.9485 18.7486 56.9485 22.0856C56.9045 25.2909 56.3337 29.506 55.1921 32.36Z" fill="white"/>
<path d="M77.19 39.0779C76.9704 39.5609 76.6631 39.9121 76.1362 39.9121H62.7004C62.1735 39.9121 61.91 39.5609 61.8661 39.0779L58.3535 13.8748V13.6553C58.3535 12.9528 58.8365 12.382 59.6268 12.382H67.0912C67.8376 12.382 68.2767 12.4698 68.3645 13.3918L69.6817 33.9407H71.0868L77.0143 13.4357C77.2778 12.5576 77.7608 12.382 78.4633 12.382H85.9715C86.674 12.382 87.0253 12.821 87.0253 13.3479C87.0253 13.5236 86.9814 13.6992 86.9375 13.9187L77.19 39.0779Z" fill="white"/>
<path d="M100.329 8.07898C100.154 9.3523 99.5389 9.74747 98.3095 9.74747H92.1185C91.0647 9.74747 90.5378 9.44012 90.5378 8.47415V8.03507L91.3282 1.88798C91.4599 0.614652 92.0746 0.219482 93.2601 0.219482H99.4511C100.549 0.219482 101.076 0.570745 101.076 1.49281C101.076 1.66844 101.076 1.75626 101.032 1.88798L100.329 8.07898ZM96.4654 39.1657C96.3776 39.6487 95.9824 39.956 95.4555 39.956H87.3326C86.8496 39.956 86.5422 39.6926 86.5422 39.2535V39.1657L89.7914 13.0845C89.8353 12.6015 90.2744 12.2941 90.7574 12.2941H98.8803C99.3633 12.2941 99.6707 12.5576 99.6707 12.9967V13.0845L96.4654 39.1657Z" fill="white"/>
<path d="M118.068 19.2316C117.629 18.4413 116.751 18.3535 115.39 18.3535C113.897 18.3535 112.228 18.7486 112.228 18.7486L110.428 33.5456C110.428 33.5456 111.745 33.7651 112.887 33.7651C115.917 33.7651 117.014 33.1504 117.849 27.6619C118.156 25.6861 118.463 23.7102 118.463 21.7344C118.463 20.5488 118.332 19.7585 118.068 19.2316ZM126.103 32.9748C124.171 37.5412 120.659 39.8683 113.063 39.8683C108.891 39.8683 105.423 39.2975 103.403 38.6389C101.295 37.9363 100.768 37.146 100.768 35.6531C100.768 34.9506 100.856 34.0724 101.032 33.0187L104.632 2.54665C104.72 1.75631 105.027 1.22942 105.906 1.09769L113.107 0.0439078C113.194 0.0439078 113.37 0 113.458 0C113.985 0 114.38 0.263447 114.38 0.878156C114.38 0.922064 114.336 0.965971 114.336 1.00988L113.063 12.865C113.063 12.865 115.434 12.0746 118.507 12.0746C121.976 12.0746 124.566 12.7772 126.103 14.5335C127.464 16.0263 128.123 18.3095 128.123 21.6904C128.035 25.1153 127.289 29.9451 126.103 32.9748Z" fill="white"/>
<path d="M144.018 18.09C140.329 18.09 139.627 21.8222 139.495 25.1153C143.096 24.8957 147.618 25.1592 147.618 21.5148C147.618 19.1877 146.301 18.09 144.018 18.09ZM139.012 29.5939C138.968 29.8573 138.968 30.0769 138.968 30.2964C138.968 31.7015 139.583 32.6674 140.988 33.2382C142.042 33.6334 143.491 33.8529 145.467 33.8529C148.496 33.8529 151.438 32.887 152.316 32.7113C152.36 32.7113 152.36 32.6674 152.404 32.6674C152.799 32.6674 153.15 33.0187 153.194 33.6334L153.546 36.8387V36.9704C153.546 37.5851 153.238 37.9803 152.843 38.112C149.418 39.4292 145.862 39.8683 142.261 39.8683C134.446 39.8683 129.879 37.0582 129.879 29.0231C129.879 23.359 131.767 18.573 133.436 16.3337C135.851 13.0406 140.242 12.0308 144.544 12.0308C151.658 12.0308 156.356 13.8749 156.356 20.8562C156.4 29.4182 148.672 29.2865 139.012 29.5939Z" fill="white"/>
<path d="M176.114 18.2217C176.07 18.7047 175.719 19.012 175.192 19.012H169.089L167.816 28.4522C167.772 29.1986 167.596 30.1207 167.596 30.9549C167.596 31.7014 167.684 32.2722 168.211 32.6674C168.606 32.9747 169.265 33.1942 170.187 33.1942C171.767 33.1942 172.733 32.9747 173.48 32.8869H173.699C174.182 32.8869 174.226 33.1942 174.27 33.5016L174.533 37.585V37.8046C174.533 38.4193 174.314 38.8583 173.611 39.0779C172.997 39.2096 170.582 40 166.85 40C164.171 40 162.108 39.6487 160.571 38.7266C158.683 37.6728 157.673 35.8287 157.673 32.9747C157.673 31.5697 157.892 30.2524 158.024 28.8913L160.878 5.66406C160.966 4.82981 161.317 4.30291 162.195 4.17119L169.704 2.98568C169.791 2.98568 169.923 2.94177 170.011 2.94177C170.538 2.94177 170.889 3.20522 170.889 3.77602V3.99556L169.923 12.1624H176.026C176.509 12.1624 176.817 12.4259 176.817 12.8649V12.9527L176.114 18.2217Z" fill="white"/>
</svg>
