<svg width="150" height="auto" viewBox="0 0 652 652" fill="none" xmlns="http://www.w3.org/2000/svg">
<path d="M74.2016 370.098C102.147 370.098 124.802 347.444 124.802 319.498C124.802 291.553 102.147 268.898 74.2016 268.898C46.2559 268.898 23.6016 291.553 23.6016 319.498C23.6016 347.444 46.2559 370.098 74.2016 370.098Z" fill="white"/>
<path d="M74.1984 359.799C96.4555 359.799 114.498 341.756 114.498 319.499C114.498 297.242 96.4555 279.199 74.1984 279.199C51.9414 279.199 33.8984 297.242 33.8984 319.499C33.8984 341.756 51.9414 359.799 74.1984 359.799Z" fill="white"/>
<path d="M46.5 317.801C60 317.801 71 306.801 71 293.301C71 279.801 60 268.801 46.5 268.801C33 268.801 22 279.801 22 293.301C22 306.801 32.9 317.801 46.5 317.801Z" fill="#0CD664"/>
<path d="M162.201 306.202C162.201 308.602 163.501 310.702 165.901 312.302C168.301 313.802 172.301 315.102 177.801 316.302C184.901 317.702 190.201 320.202 193.701 323.302C197.201 326.502 198.901 330.802 198.901 336.102C198.901 341.502 196.701 346.302 192.301 350.002C187.901 353.902 182.101 355.802 174.901 355.802C167.301 355.802 161.101 353.902 156.601 350.102C152.001 346.302 149.001 341.202 147.801 335.002L158.501 329.602C160.401 339.802 165.801 344.902 174.701 344.902C178.301 344.902 181.301 344.102 183.301 342.502C185.501 341.002 186.501 338.802 186.501 336.202C186.501 333.402 185.201 331.202 182.601 329.602C180.001 328.102 176.001 326.602 170.501 325.602C164.301 324.302 159.401 322.102 155.801 318.902C152.201 315.702 150.401 311.402 150.401 306.302C150.401 301.002 152.501 296.602 156.701 293.402C160.801 290.202 166.401 288.602 173.101 288.602C185.301 288.602 193.501 294.102 197.601 305.102L188.101 310.602C185.501 303.002 180.501 299.102 172.901 299.102C169.801 299.102 167.201 299.602 165.201 300.802C163.201 302.202 162.201 303.902 162.201 306.202ZM203.801 373.202V308.802H215.401V315.402C216.901 313.102 219.301 311.102 222.001 309.702C224.801 308.302 227.901 307.502 231.101 307.502C237.001 307.502 242.101 309.702 246.001 314.102C250.001 318.502 252.101 324.302 252.101 331.602C252.101 338.802 250.001 344.602 245.801 349.002C241.501 353.502 236.401 355.702 230.201 355.702C224.001 355.702 219.101 353.402 215.401 348.702V373.202H203.801ZM236.801 322.202C234.401 319.602 231.301 318.302 227.701 318.302C224.001 318.302 221.001 319.602 218.601 322.202C216.201 324.802 214.901 327.902 214.901 331.602C214.901 335.302 216.201 338.402 218.601 341.002C221.001 343.602 224.101 344.902 227.701 344.902C231.401 344.902 234.401 343.602 236.801 341.002C239.201 338.402 240.501 335.302 240.501 331.602C240.401 327.802 239.201 324.702 236.801 322.202ZM297.501 313.902C302.501 318.202 305.001 324.102 305.001 331.602C305.001 339.102 302.601 345.002 297.701 349.302C292.801 353.602 286.901 355.702 280.201 355.702C273.501 355.702 267.601 353.502 262.701 349.302C257.801 345.002 255.401 339.102 255.401 331.602C255.401 324.102 257.801 318.202 262.701 313.902C267.601 309.602 273.501 307.502 280.201 307.502C286.801 307.502 292.601 309.702 297.501 313.902ZM270.801 341.202C273.401 343.602 276.501 344.802 280.101 344.802C283.701 344.802 286.801 343.602 289.401 341.202C292.001 338.802 293.301 335.502 293.301 331.502C293.301 327.502 292.001 324.302 289.401 321.802C286.801 319.402 283.701 318.202 280.101 318.202C276.501 318.202 273.401 319.402 270.801 321.802C268.201 324.202 266.901 327.502 266.901 331.502C267.001 335.602 268.201 338.802 270.801 341.202ZM338.701 308.102V318.802C337.501 318.202 334.401 318.402 333.201 318.402C329.801 318.402 327.101 319.702 325.201 322.302C323.301 324.902 322.201 328.102 322.201 332.002V354.602H310.601V308.902H322.201V316.102C325.001 310.402 329.301 307.602 335.001 307.602C336.201 307.502 337.401 307.702 338.701 308.102ZM344.401 308.802V296.402H356.001V308.802H365.901V318.202H356.001V338.902C356.001 343.202 357.901 345.302 361.801 345.302C363.101 345.302 364.401 345.202 365.701 344.802L366.901 354.302C364.601 355.202 362.001 355.602 359.201 355.602C349.401 355.602 344.601 350.702 344.601 341.002V318.102L344.401 308.802ZM381.801 320.002C381.801 322.802 385.401 325.002 392.601 326.402C397.901 327.602 401.701 329.202 404.201 331.402C406.601 333.602 407.801 336.702 407.801 340.402C407.801 344.802 406.101 348.402 402.901 351.402C399.701 354.202 395.301 355.702 389.801 355.702C384.501 355.702 380.101 354.402 376.701 351.802C373.201 349.202 370.601 346.002 369.001 342.002L378.301 336.102C379.301 339.102 380.901 341.502 382.801 343.302C384.701 345.102 387.201 346.002 390.001 346.002C391.901 346.002 393.601 345.602 395.001 344.702C396.401 343.802 397.201 342.502 397.201 341.002C397.201 339.602 396.401 338.302 394.901 337.502C393.401 336.602 390.901 335.802 387.401 335.202C376.801 333.102 371.501 328.402 371.501 320.902C371.501 316.802 373.201 313.602 376.501 311.202C379.901 308.902 383.801 307.702 388.601 307.702C393.501 307.702 397.401 308.602 400.201 310.402C403.001 312.202 405.501 315.202 407.401 319.202L399.001 324.202C396.901 318.902 393.501 316.202 388.701 316.202C384.101 316.002 381.801 317.302 381.801 320.002ZM411.901 354.402V290.002H423.501V314.402C427.101 309.802 432.101 307.402 438.401 307.402C444.701 307.402 449.901 309.602 454.001 313.802C458.101 318.202 460.201 324.002 460.201 331.502C460.201 338.802 458.101 344.802 453.901 349.002C449.601 353.402 444.501 355.602 438.301 355.602C431.901 355.602 426.801 353.302 423.501 348.602V354.302H411.901C411.901 354.202 411.901 354.402 411.901 354.402ZM426.501 341.202C428.901 343.602 432.001 344.902 435.801 344.902C439.501 344.902 442.601 343.602 445.101 341.202C447.501 338.802 448.701 335.502 448.701 331.702C448.701 327.802 447.501 324.602 445.101 322.202C442.701 319.802 439.601 318.502 435.801 318.502C432.101 318.502 429.001 319.802 426.501 322.202C424.101 324.602 422.901 327.902 422.901 331.702C422.901 335.402 424.001 338.702 426.501 341.202ZM509.501 334.402H474.301C474.701 337.902 476.001 340.702 478.301 342.802C480.601 344.902 483.501 345.902 486.801 345.902C492.501 345.902 496.601 343.102 499.401 337.502L508.001 342.502C503.701 351.402 496.501 355.902 486.601 355.902C480.201 355.902 474.601 353.702 470.001 349.202C465.501 344.702 463.201 338.902 463.201 331.802C463.201 324.702 465.501 318.902 470.201 314.402C474.801 309.902 480.501 307.702 487.201 307.702C493.601 307.702 499.101 309.902 503.201 314.102C507.301 318.402 509.501 323.902 509.501 330.502V334.402ZM486.901 316.402C483.901 316.402 481.201 317.302 479.001 319.102C476.801 320.902 475.301 323.202 474.401 325.902H498.901C498.401 322.902 497.001 320.502 494.901 318.802C492.901 317.102 490.201 316.402 486.901 316.402ZM513.201 308.802V296.402H524.801V308.802H534.701V318.202H524.801V338.902C524.801 343.202 526.701 345.302 530.601 345.302C531.901 345.302 533.201 345.202 534.501 344.802L535.701 354.302C533.401 355.202 530.801 355.602 528.001 355.602C518.201 355.602 513.401 350.702 513.401 341.002V318.102L513.201 308.802ZM545.301 354.402C548.701 354.402 551.501 351.702 551.501 348.202C551.501 344.802 548.801 342.002 545.301 342.002C541.901 342.002 539.101 344.702 539.101 348.202C539.101 351.702 542.001 354.402 545.301 354.402ZM556.601 354.402V308.802H568.201V354.402H556.601ZM614.501 313.902C619.501 318.202 622.001 324.102 622.001 331.602C622.001 339.102 619.601 345.002 614.701 349.302C609.801 353.602 603.901 355.702 597.201 355.702C590.501 355.702 584.601 353.502 579.701 349.302C574.801 345.002 572.401 339.102 572.401 331.602C572.401 324.102 574.801 318.202 579.701 313.902C584.601 309.602 590.501 307.502 597.201 307.502C603.801 307.502 609.501 309.702 614.501 313.902ZM587.701 341.202C590.301 343.602 593.401 344.802 597.001 344.802C600.601 344.802 603.701 343.602 606.301 341.202C608.901 338.802 610.201 335.502 610.201 331.502C610.201 327.502 608.901 324.302 606.301 321.802C603.701 319.402 600.601 318.202 597.001 318.202C593.401 318.202 590.301 319.402 587.701 321.802C585.101 324.202 583.801 327.502 583.801 331.502C583.801 335.502 585.101 338.802 587.701 341.202Z" fill="white"/>
<path d="M556 296.098C556 299.598 558.8 302.298 562.2 302.298C565.6 302.298 568.4 299.598 568.4 296.098C568.4 292.598 565.6 289.898 562.2 289.898C558.7 289.898 556 292.598 556 296.098Z" fill="#0CD664"/>
</svg>
