<svg width="256" height="115" viewBox="0 0 256 115" fill="none" xmlns="http://www.w3.org/2000/svg">
<g clip-path="url(#clip0_149_61)">
<path d="M200.508 11.643L197.801 10.2731L180.449 44.5578L232.778 71.0424L250.13 36.7578L204.117 13.4695C203.618 13.2173 203.419 12.6092 203.671 12.1109L201.867 11.1976C201.614 11.6959 201.006 11.8952 200.508 11.643ZM221.775 26.7184C222.138 26.6975 222.484 26.8725 222.682 27.1771L238.393 51.3704C238.589 51.6725 238.61 52.0563 238.447 52.378C238.284 52.6993 237.963 52.9099 237.603 52.9309L233.054 53.1942C232.496 53.2262 232.018 52.8005 231.986 52.243L229.967 52.3598C229.999 52.9172 229.573 53.3956 229.016 53.4279L208.804 54.5973C208.623 54.6076 208.446 54.5693 208.289 54.49C208.132 54.4106 207.997 54.2908 207.897 54.1385L192.187 29.945C191.991 29.6428 191.97 29.259 192.133 28.9375C192.295 28.616 192.617 28.4054 192.977 28.3845L221.775 26.7184Z" fill="#259245"/>
<path d="M251.954 35.4052L205.038 11.6604C204.539 11.4082 203.931 11.6076 203.679 12.106C203.427 12.6044 203.626 13.2125 204.125 13.4647L250.138 36.7529L232.786 71.0375L180.457 44.5529L197.809 10.2684L200.516 11.6384C201.014 11.8906 201.622 11.6912 201.874 11.1929C202.127 10.6945 201.927 10.0862 201.429 9.83402L197.82 8.0075C197.322 7.7553 196.714 7.95476 196.461 8.45318L178.196 44.542C177.944 45.0403 178.143 45.6487 178.642 45.9009L232.775 73.2987C233.273 73.5509 233.882 73.3514 234.134 72.853L252.399 36.7641C252.651 36.2657 252.452 35.6574 251.954 35.4052Z" fill="black"/>
<path d="M232.938 51.1742L235.749 51.0115L221.306 28.7706L194.832 30.3024L209.275 52.5434L228.9 51.4078C229.457 51.3756 229.935 51.8012 229.968 52.359L231.987 52.2421C231.954 51.6847 232.38 51.2064 232.938 51.1742ZM211.118 48.9013C206.572 46.6005 204.745 41.0304 207.046 36.4843C209.347 31.9383 214.917 30.1118 219.463 32.4127C224.009 34.7135 225.836 40.2836 223.535 44.8296C222.881 46.1216 221.962 47.1933 220.879 48.0137C220.806 48.0851 220.724 48.1456 220.632 48.1926C217.926 50.1048 214.275 50.4993 211.118 48.9013Z" fill="#FFE000"/>
<path d="M192.136 28.9395C191.973 29.2608 191.994 29.6446 192.19 29.947L207.901 54.1403C208 54.2924 208.136 54.4124 208.293 54.4918C208.449 54.5711 208.626 54.6095 208.808 54.5991L229.019 53.4297C229.577 53.3974 230.003 52.919 229.971 52.3616C229.938 51.8037 229.46 51.3782 228.903 51.4104L209.277 52.546L194.834 30.3052L221.309 28.7733L235.752 51.0143L232.941 51.1769C232.383 51.2093 231.957 51.6876 231.989 52.245C232.022 52.8027 232.5 53.2282 233.058 53.1962L237.606 52.9329C237.966 52.912 238.288 52.7015 238.451 52.38C238.613 52.0585 238.593 51.6747 238.396 51.3724L222.685 27.179C222.487 26.8744 222.141 26.6994 221.779 26.7203L192.98 28.3865C192.62 28.4074 192.299 28.618 192.136 28.9395Z" fill="black"/>
<path d="M217.938 38.3831C219.584 40.2868 220.644 42.5972 221.027 45.0487C221.294 44.7005 221.533 44.3243 221.738 43.9192C223.536 40.3681 222.109 36.017 218.558 34.2198C216.338 33.0964 213.806 33.2325 211.78 34.3599C214.155 35.0933 216.291 36.4771 217.938 38.3831Z" fill="#103B9B"/>
<path d="M216.407 39.7036C214.7 37.7288 212.376 36.4114 209.82 35.9582C209.45 36.3892 209.125 36.8696 208.857 37.3985C207.06 40.9495 208.487 45.3007 212.038 47.0979C214.385 48.2861 217.082 48.0641 219.16 46.7521C219.079 44.1607 218.112 41.6757 216.407 39.7036Z" fill="#103B9B"/>
<path d="M220.639 48.1908C220.73 48.1437 220.813 48.0833 220.886 48.012C220.805 48.0732 220.722 48.1322 220.639 48.1908Z" fill="white"/>
<path d="M216.41 39.6991C218.114 41.6712 219.081 44.1562 219.163 46.7474C219.869 46.3011 220.503 45.7283 221.028 45.0423C220.645 42.5907 219.586 40.2802 217.94 38.3767C216.292 36.4705 214.156 35.0868 211.782 34.3535C211.049 34.7614 210.384 35.2995 209.823 35.9537C212.379 36.407 214.703 37.7244 216.41 39.6991Z" fill="white"/>
<path d="M223.539 44.8318C225.84 40.2857 224.013 34.7157 219.467 32.4148C214.921 30.114 209.351 31.9405 207.05 36.4865C204.749 41.0325 206.576 46.6027 211.122 48.9035C214.279 50.5014 217.93 50.1069 220.637 48.1948C220.719 48.1364 220.802 48.0772 220.883 48.016C221.966 47.1954 222.885 46.1238 223.539 44.8318ZM212.035 47.0992C208.484 45.302 207.057 40.9507 208.855 37.3998C209.122 36.8708 209.448 36.3905 209.817 35.9594C210.379 35.3053 211.044 34.7671 211.776 34.3593C213.802 33.2319 216.334 33.0957 218.554 34.2191C222.105 36.0163 223.532 40.3674 221.734 43.9185C221.529 44.3236 221.289 44.6998 221.023 45.048C220.498 45.734 219.864 46.3069 219.157 46.7531C217.079 48.0653 214.383 48.2873 212.035 47.0992Z" fill="black"/>
<path d="M169.115 58.3305C168.36 57.9479 168.056 57.0215 168.438 56.2656L193.953 5.85249C194.332 5.10356 195.25 4.80258 195.999 5.18162L196.178 5.2723C196.934 5.65497 197.238 6.58126 196.855 7.33722L171.347 57.7374C170.964 58.4935 170.038 58.7971 169.282 58.4145L169.115 58.3302L169.115 58.3305Z" fill="#2E3033"/>
<path d="M196.737 4.17584L196.558 4.08516C195.206 3.40065 193.549 3.94397 192.864 5.29646L167.349 55.7094C166.661 57.0689 167.207 58.7346 168.567 59.4227L168.733 59.5069C170.093 60.195 171.759 59.6488 172.447 58.2893L197.955 7.88899C198.643 6.52958 198.097 4.86386 196.737 4.17584ZM170.623 57.3662C170.444 57.7198 170.01 57.8619 169.657 57.6829L169.49 57.5987C169.137 57.4198 168.995 56.9865 169.173 56.6328L194.688 6.21975C194.864 5.87304 195.289 5.73379 195.635 5.90927L195.814 5.99994C196.168 6.17893 196.31 6.61223 196.131 6.96587L170.623 57.3661L170.623 57.3662Z" fill="black"/>
</g>
<g clip-path="url(#clip1_149_61)">
<path d="M50.4034 17.306L52.9201 16.6317L61.4619 48.5102L12.8053 61.5477L4.26348 29.6692L47.0478 18.2052C47.5111 18.081 47.786 17.605 47.6619 17.1417L49.3398 16.6921C49.464 17.1554 49.9401 17.4302 50.4034 17.306ZM29.8684 26.229C29.5672 26.1475 29.2457 26.2336 29.0256 26.4548L11.554 44.0218C11.3358 44.2411 11.2506 44.5601 11.3308 44.8592C11.4108 45.158 11.644 45.3917 11.9428 45.4728L15.7202 46.496C16.1831 46.6213 16.6602 46.3477 16.7857 45.8847L18.4622 46.3389C18.3368 46.8018 18.6105 47.2789 19.0735 47.4044L35.8572 51.9506C36.0077 51.9912 36.1633 51.9902 36.309 51.9512C36.4548 51.9121 36.5899 51.8353 36.7001 51.7248L54.1716 34.1576C54.3897 33.9381 54.4748 33.6191 54.3947 33.3202C54.3146 33.0213 54.0815 32.7876 53.7828 32.7066L29.8684 26.229Z" fill="#259245"/>
<path d="M2.97922 28.2177L46.6024 16.5289C47.0657 16.4047 47.5418 16.6796 47.666 17.1431C47.7902 17.6064 47.5152 18.0824 47.0519 18.2066L4.26772 29.6706L12.8095 61.5491L61.466 48.5116L52.9242 16.6332L50.4074 17.3076C49.9441 17.4317 49.468 17.1569 49.3439 16.6936C49.2197 16.2302 49.4946 15.754 49.9579 15.6299L53.3135 14.7307C53.7769 14.6066 54.253 14.8815 54.3772 15.3449L63.3685 48.901C63.4927 49.3643 63.2178 49.8406 62.7544 49.9647L12.4202 63.4518C11.9568 63.5759 11.4807 63.3009 11.3565 62.8376L2.36517 29.2814C2.24099 28.8179 2.51588 28.3418 2.97922 28.2177Z" fill="black"/>
<path d="M16.172 44.8243L13.8373 44.1919L29.8989 28.0425L51.8833 33.9975L35.8218 50.147L19.5251 45.7325C19.0624 45.6072 18.5855 45.8807 18.4597 46.3439L16.7832 45.8897C16.9086 45.4268 16.6349 44.9497 16.172 44.8243ZM34.9144 46.7605C39.1413 45.6278 41.6588 41.2677 40.5262 37.0407C39.3935 32.8137 35.0333 30.2964 30.8063 31.429C26.5793 32.5616 24.062 36.9218 25.1946 41.1488C25.5165 42.3501 26.0998 43.413 26.8659 44.2936C26.9142 44.3664 26.9731 44.4317 27.0414 44.4873C28.9797 46.5719 31.9786 47.5471 34.9144 46.7605Z" fill="#FFE000"/>
<path d="M54.4032 33.3261C54.4833 33.625 54.3983 33.9439 54.1801 34.1635L36.7084 51.7305C36.5984 51.8409 36.4631 51.9179 36.3174 51.9569C36.1716 51.996 36.0161 51.997 35.8655 51.9564L19.0818 47.4102C18.6187 47.2847 18.3452 46.8075 18.4706 46.3447C18.5962 45.8814 19.0732 45.608 19.5359 45.7333L35.8326 50.1477L51.8942 33.9984L29.9098 28.0434L13.8482 44.1928L16.1828 44.8252C16.6458 44.9507 16.9195 45.4279 16.7941 45.8907C16.6687 46.3538 16.1917 46.6272 15.7286 46.502L11.9512 45.4787C11.6525 45.3977 11.4193 45.164 11.3392 44.8651C11.2591 44.5662 11.3441 44.2472 11.5624 44.0277L29.0342 26.4607C29.2543 26.2395 29.5758 26.1534 29.877 26.2349L53.7913 32.7125C54.09 32.7935 54.3231 33.0272 54.4032 33.3261Z" fill="black"/>
<path d="M31.0372 36.7125C29.3183 38.0226 28.0202 39.7779 27.2659 41.7711C27.1031 41.4314 26.9679 41.0729 26.8669 40.6962C25.9822 37.3943 27.9488 33.9883 31.2505 33.1036C33.3143 32.5506 35.4189 33.1115 36.923 34.4163C34.7978 34.6142 32.7583 35.4008 31.0372 36.7125Z" fill="#103B9B"/>
<path d="M32.1001 38.0938C33.8834 36.7348 36.0687 36.037 38.2974 36.1067C38.5322 36.5342 38.7211 36.9954 38.8528 37.4872C39.7375 40.7889 37.771 44.195 34.4693 45.0797C32.2865 45.6646 30.0586 45.0026 28.5433 43.5334C29.0686 41.3695 30.3195 39.4511 32.1001 38.0938Z" fill="#103B9B"/>
<path d="M27.0407 44.4844C26.9724 44.4288 26.9134 44.3633 26.8652 44.2907C26.9224 44.3564 26.9813 44.4205 27.0407 44.4844Z" fill="white"/>
<path d="M32.0935 38.0946C30.313 39.4519 29.0621 41.3703 28.5368 43.534C28.0216 43.0344 27.5897 42.4411 27.2692 41.7719C28.0235 39.7786 29.3216 38.0233 31.0405 36.7133C32.7617 35.4015 34.8012 34.6149 36.9263 34.4171C37.47 34.8891 37.9342 35.4587 38.2907 36.1075C36.0621 36.0379 33.8765 36.7357 32.0935 38.0946Z" fill="white"/>
<path d="M25.1951 41.1488C24.0625 36.9218 26.5798 32.5617 30.8068 31.4291C35.0338 30.2964 39.3941 32.8138 40.5267 37.0407C41.6593 41.2677 39.1418 45.6279 34.9149 46.7605C31.9792 47.5471 28.9802 46.572 27.0419 44.4874C26.9825 44.4237 26.9237 44.3595 26.8664 44.2937C26.1003 43.4129 25.517 42.3502 25.1951 41.1488ZM34.4653 45.0828C37.7671 44.1981 39.7336 40.792 38.8489 37.4903C38.7171 36.9985 38.5283 36.5374 38.2934 36.1098C37.9368 35.461 37.4727 34.8914 36.929 34.4194C35.4249 33.1147 33.3203 32.5537 31.2565 33.1067C27.9547 33.9914 25.9882 37.3974 26.8729 40.6992C26.9739 41.076 27.1092 41.4344 27.2719 41.7741C27.5922 42.4433 28.0241 43.0367 28.5394 43.5363C30.0547 45.0056 32.2825 45.6677 34.4653 45.0828Z" fill="black"/>
<path d="M68.5669 62.0904C69.2697 61.902 69.6885 61.1769 69.5001 60.474L56.94 13.599C56.7534 12.9026 56.0349 12.4878 55.3385 12.6744L55.172 12.719C54.4689 12.9074 54.0504 13.6325 54.2387 14.3354L66.7956 61.1984C66.984 61.9014 67.7091 62.32 68.412 62.1316L68.5668 62.0901L68.5669 62.0904Z" fill="#2E3033"/>
<path d="M54.8965 11.7007L55.0631 11.656C56.3206 11.3191 57.6179 12.0679 57.9548 13.3255L70.5149 60.2004C70.8536 61.4645 70.1008 62.7684 68.8367 63.1071L68.682 63.1486C67.4179 63.4873 66.114 62.7345 65.7753 61.4704L53.2184 14.6073C52.8797 13.3433 53.6325 12.0394 54.8965 11.7007ZM67.4714 61.016C67.5595 61.3449 67.8986 61.5407 68.2275 61.4526L68.3822 61.4111C68.711 61.323 68.9068 60.9838 68.8187 60.655L56.2586 13.78C56.1722 13.4576 55.8398 13.2657 55.5174 13.3521L55.3508 13.3967C55.022 13.4848 54.8262 13.824 54.9143 14.1528L67.4712 61.016L67.4714 61.016Z" fill="black"/>
</g>
<path d="M173.218 63.7812H71.5706C69.1175 63.7812 67.1289 65.7699 67.1289 68.223V107.503C67.1289 109.956 69.1175 111.944 71.5706 111.944H173.218C175.672 111.944 177.66 109.956 177.66 107.503V68.223C177.66 65.7699 175.672 63.7812 173.218 63.7812Z" fill="#F5E680"/>
<path fill-rule="evenodd" clip-rule="evenodd" d="M139.935 63.7812L143.538 67.4656L142.555 74.1589C142.31 75.8783 144.09 77.1883 145.646 76.4105L151.705 73.422L157.763 76.4105C159.319 77.1883 161.1 75.8783 160.854 74.1589L159.872 67.4656L163.474 63.7812H139.935ZM105.937 63.7812L105.589 66.1966C105.241 68.6528 107.779 70.495 109.989 69.3897L117.583 65.6439L125.177 69.3897C127.388 70.495 129.946 68.6528 129.578 66.1966L129.23 63.7812H105.957H105.937ZM71.6719 63.7812L75.2744 67.4656L74.2919 74.1589C74.0463 75.8783 75.827 77.1678 77.3827 76.4105L83.4414 73.422L89.5002 76.4105C91.0558 77.1883 92.8366 75.8783 92.5909 74.1589L91.6084 67.4656L95.2109 63.7812H71.6923H71.6719Z" fill="#F2D865"/>
<path fill-rule="evenodd" clip-rule="evenodd" d="M125.117 37.6641L129.047 45.1557L137.398 46.5885C139.834 46.9979 140.817 49.9863 139.077 51.7671L133.161 57.8258L134.39 66.1975C134.758 68.6538 132.199 70.496 129.989 69.3907L122.395 65.6449L114.801 69.3907C112.57 70.496 110.032 68.6538 110.4 66.1975L111.628 57.8258L105.713 51.7671C103.973 49.9863 104.956 46.9979 107.391 46.5885L115.743 45.1557L119.673 37.6641C120.819 35.4739 123.971 35.4739 125.117 37.6641Z" fill="#EBB680"/>
<path fill-rule="evenodd" clip-rule="evenodd" d="M90.1775 51.8701L93.3092 57.847L99.9615 58.9728C101.681 59.2593 102.356 61.3676 101.149 62.5957L96.4204 67.4264L97.4029 74.1196C97.6486 75.839 95.8678 77.1285 94.3122 76.3712L88.2534 73.3828L82.1947 76.3712C80.639 77.149 78.8582 75.839 79.1039 74.1196L80.0864 67.4264L75.3581 62.5957C74.1504 61.3471 74.8259 59.2593 76.5453 58.9728L83.1976 57.847L86.3293 51.8701C87.1276 50.335 89.3382 50.335 90.1365 51.8701H90.1775Z" fill="#EBB680"/>
<path fill-rule="evenodd" clip-rule="evenodd" d="M158.443 51.8701L161.575 57.847L168.227 58.9728C169.947 59.2593 170.622 61.3676 169.414 62.5957L164.686 67.4264L165.669 74.1196C165.914 75.839 164.133 77.1285 162.578 76.3712L156.519 73.3828L150.46 76.3712C148.905 77.149 147.124 75.839 147.37 74.1196L148.352 67.4264L143.624 62.5957C142.416 61.3471 143.092 59.2593 144.811 58.9728L151.463 57.847L154.595 51.8701C155.393 50.335 157.604 50.335 158.402 51.8701H158.443Z" fill="#EBB680"/>
<path fill-rule="evenodd" clip-rule="evenodd" d="M167.016 63.7822C169.472 63.7822 171.457 65.7677 171.457 68.2239V107.503C171.457 109.96 169.472 111.945 167.016 111.945H173.218C175.674 111.945 177.659 109.96 177.659 107.503V68.2034C177.659 65.7472 175.674 63.7617 173.218 63.7617H167.016V63.7822Z" fill="#F2D865"/>
<path fill-rule="evenodd" clip-rule="evenodd" d="M156.516 50.724C155.718 50.724 154.981 51.1744 154.613 51.8703L153.896 53.2212L156.311 57.8472L162.984 58.9934C164.704 59.28 165.379 61.3883 164.171 62.6164L159.443 67.447L160.426 74.1403C160.467 74.5087 160.426 74.8976 160.282 75.2456L162.575 76.3919C164.13 77.1697 165.911 75.8597 165.666 74.1403L164.683 67.447L169.411 62.6164C170.619 61.3678 169.944 59.28 168.224 58.9934L161.551 57.8472L158.42 51.8703C158.051 51.1539 157.314 50.724 156.516 50.724ZM88.2528 50.724C87.4545 50.724 86.7177 51.1744 86.3492 51.8703L85.6328 53.2212L88.0481 57.8472L94.7209 58.9934C96.4403 59.28 97.1158 61.3883 95.9081 62.6164L91.1798 67.447L92.1623 74.1403C92.2033 74.5087 92.1623 74.8976 92.0191 75.2456L94.3116 76.3919C95.8672 77.1697 97.648 75.8597 97.4023 74.1403L96.4198 67.447L101.148 62.6164C102.356 61.3678 101.68 59.28 99.9609 58.9934L93.2881 57.8472L90.1564 51.8703C89.788 51.1539 89.0511 50.724 88.2528 50.724ZM121.903 36.0479C121.003 36.2117 120.225 36.7439 119.754 37.5422C119.795 37.5831 119.816 37.624 119.857 37.665L123.787 45.1565L132.138 46.5689C134.574 46.9783 135.556 49.9667 133.816 51.7475L127.901 57.8062L129.129 66.1779C129.252 67.0581 128.986 67.9383 128.412 68.6137L129.968 69.3915C132.179 70.4969 134.737 68.6547 134.369 66.1984L133.141 57.8267L139.056 51.7679C140.796 49.9872 139.814 46.9987 137.378 46.5894L129.027 45.177L125.097 37.6854C124.482 36.5187 123.193 35.8637 121.903 36.0684V36.0479Z" fill="#E6A361"/>
<path d="M173.218 61.7352H171.949C171.97 61.5305 172.072 61.3462 172.072 61.1416C172.072 59.0947 170.598 57.3344 168.572 57.0069L162.902 56.0448L160.241 50.9481C159.504 49.5562 158.092 48.6966 156.516 48.6966C154.94 48.6966 153.527 49.5562 152.79 50.9481L150.13 56.0448L144.46 57.0069C142.433 57.3548 140.96 59.0947 140.96 61.1416C140.96 61.3462 141.041 61.5509 141.082 61.7352H135.781L135.31 58.5216L140.509 53.1997C141.451 52.2377 141.963 50.9686 141.963 49.6177C141.963 47.1205 140.161 44.9917 137.705 44.5823L130.357 43.3338L126.898 36.7428C126.017 35.0439 124.278 34 122.353 34C120.429 34 118.71 35.0439 117.809 36.7428L114.35 43.3338L107.002 44.5823C104.525 45.0122 102.744 47.1205 102.744 49.6381C102.744 50.9891 103.256 52.2581 104.198 53.2202L109.397 58.542L108.926 61.7556H103.625C103.645 61.5509 103.747 61.3667 103.747 61.162C103.747 59.1152 102.274 57.3548 100.247 57.0273L94.5773 56.0653L91.9164 50.9686C91.1795 49.5767 89.7672 48.717 88.1911 48.717C86.615 48.717 85.2027 49.5767 84.4658 50.9686L81.8048 56.0653L76.135 57.0273C74.1086 57.3753 72.6348 59.1152 72.6348 61.162C72.6348 61.3667 72.7167 61.5714 72.7577 61.7556H71.4886C67.9066 61.7556 65 64.6622 65 68.2442V107.524C65 111.106 67.9066 114.012 71.4886 114.012H173.218C176.8 114.012 179.707 111.106 179.707 107.524V68.2033C179.707 64.6212 176.8 61.7147 173.218 61.7147V61.7352ZM151.808 59.893C152.442 59.7906 152.975 59.4017 153.282 58.8286L156.516 52.7903C156.516 52.7903 156.598 52.8108 156.618 52.8517L159.75 58.8286C160.057 59.4017 160.589 59.7906 161.224 59.893L167.937 61.203L166.832 62.3287L163.209 66.0336C162.759 66.4839 162.554 67.1184 162.656 67.753L163.475 74.5486L157.416 71.5602C157.13 71.4169 156.823 71.3555 156.516 71.3555C156.209 71.3555 155.902 71.4169 155.615 71.5602L149.393 74.4462L150.375 67.753C150.477 67.1184 150.252 66.4839 149.823 66.0336L145.156 61.0187L151.808 59.893ZM107.166 50.3341C106.981 50.1498 106.879 49.8838 106.879 49.6177C106.879 49.1264 107.248 48.6966 107.739 48.6147L116.09 47.1819C116.725 47.0795 117.257 46.6702 117.564 46.1175L121.494 38.6259C121.842 37.9505 122.947 37.9505 123.315 38.6259L127.245 46.1175C127.552 46.6906 128.085 47.0795 128.719 47.1819L137.07 48.6147C137.562 48.6966 137.93 49.1264 137.93 49.6177C137.93 49.8838 137.828 50.1498 137.644 50.3341L131.728 56.3928C131.278 56.8431 131.073 57.4981 131.175 58.1122L132.404 66.6477C132.404 67.3641 131.564 67.8963 130.909 67.5688L123.315 63.823C123.029 63.6797 122.722 63.6183 122.415 63.6183C122.108 63.6183 121.801 63.6797 121.514 63.823L113.92 67.5892C113.306 67.8962 112.447 67.4255 112.447 66.5248L113.675 58.1531C113.777 57.5186 113.552 56.8841 113.122 56.4338L107.207 50.375L107.166 50.3341ZM83.5447 59.893C84.1792 59.7906 84.7114 59.3813 85.0184 58.8286L88.2525 52.7903C88.2525 52.7903 88.3344 52.8108 88.3548 52.8517L91.4866 58.8491C91.7936 59.4222 92.3258 59.8111 92.9603 59.9134L99.6741 61.2234L94.9458 66.0541C94.4955 66.5044 94.2908 67.1594 94.3931 67.7734L95.2119 74.5691L89.1531 71.5806C88.8666 71.4373 88.5595 71.3759 88.2525 71.3759C87.9455 71.3759 87.6384 71.4373 87.3519 71.5806L81.1498 74.4667L82.1323 67.7734C82.2347 67.1389 82.0095 66.5044 81.5797 66.0541L76.9128 61.0392L83.5652 59.9134L83.5447 59.893ZM175.593 107.503C175.593 108.813 174.528 109.898 173.198 109.898H71.5705C70.2605 109.898 69.1756 108.834 69.1756 107.503V68.2033C69.1756 66.8933 70.24 65.8084 71.5705 65.8084H75.6437L77.9362 68.1623L77.097 73.8322C77.0561 74.0369 77.0561 74.262 77.0561 74.4667C77.0561 76.7797 78.9392 78.6628 81.2522 78.6628C81.9072 78.6628 82.5417 78.5195 83.1148 78.233L88.273 75.6744L93.4106 78.2125C93.9838 78.4991 94.6387 78.6423 95.2733 78.6423C97.5862 78.6423 99.4694 76.7592 99.4694 74.4462C99.4694 74.2416 99.4694 74.0573 99.4284 73.8322L98.5892 68.1419L100.882 65.788H108.373V65.8698C108.332 66.1155 108.312 66.3611 108.312 66.6067C108.312 69.4314 110.604 71.7239 113.429 71.7239C114.227 71.7239 115.005 71.5397 115.701 71.1917L122.374 67.8963L129.047 71.1917C129.743 71.5397 130.541 71.7239 131.319 71.7239C134.143 71.7239 136.436 69.4314 136.436 66.6067C136.436 66.3611 136.436 66.1155 136.375 65.8698V65.8084H143.866L146.159 68.1623L145.319 73.8731C145.299 74.0573 145.278 74.262 145.278 74.4667C145.278 76.7797 147.162 78.6628 149.475 78.6628C150.13 78.6628 150.764 78.5195 151.337 78.233L156.495 75.6744L161.633 78.2125C162.206 78.4991 162.861 78.6423 163.496 78.6423C165.809 78.6423 167.692 76.7592 167.692 74.4462C167.692 74.2416 167.692 74.0164 167.651 73.8322L166.812 68.1419L169.104 65.788H173.177C174.487 65.788 175.572 66.8523 175.572 68.1828V107.462L175.593 107.503Z" fill="black"/>
<path d="M94.5158 83.1035C93.39 83.1035 92.4689 84.0246 92.4689 85.1504V91.2091L89.9308 88.4049C89.153 87.5452 87.6587 87.5452 86.9014 88.4049L84.3633 91.2091V85.1504C84.3633 84.0246 83.4422 83.1035 82.3164 83.1035C81.1906 83.1035 80.2695 84.0246 80.2695 85.1504V96.531C80.2695 97.3702 80.7813 98.1481 81.5795 98.4346C82.3778 98.7416 83.258 98.5165 83.8311 97.9024L88.4161 92.8262L93.0011 97.9024C93.5742 98.537 94.4748 98.7416 95.2527 98.4346C96.0509 98.1276 96.5627 97.3702 96.5627 96.531V85.1504C96.5627 84.0246 95.6416 83.1035 94.5158 83.1035Z" fill="black"/>
<path d="M101.375 83.1035C100.249 83.1035 99.3281 84.0246 99.3281 85.1504V96.531C99.3281 97.6568 100.249 98.5779 101.375 98.5779C102.501 98.5779 103.422 97.6568 103.422 96.531V85.1504C103.422 84.0246 102.501 83.1035 101.375 83.1035Z" fill="black"/>
<path d="M110.297 96.5123V90.8425L116.049 97.8223C116.581 98.4773 117.481 98.7434 118.321 98.4569C119.139 98.1703 119.672 97.3925 119.672 96.5328V85.1522C119.672 84.0264 118.75 83.1053 117.625 83.1053C116.499 83.1053 115.578 84.0264 115.578 85.1522V90.822L109.826 83.8422C109.273 83.1667 108.373 82.9211 107.554 83.2076C106.735 83.4942 106.203 84.272 106.203 85.1317V96.5123C106.203 97.6381 107.124 98.5592 108.25 98.5592C109.376 98.5592 110.297 97.6381 110.297 96.5123Z" fill="black"/>
<path d="M124.504 98.5592C125.63 98.5592 126.551 97.6381 126.551 96.5123V90.8425L132.303 97.8223C132.835 98.4773 133.735 98.7434 134.575 98.4569C135.393 98.1703 135.925 97.3925 135.925 96.5328V85.1522C135.925 84.0264 135.004 83.1053 133.879 83.1053C132.753 83.1053 131.832 84.0264 131.832 85.1522V90.822L126.08 83.8422C125.527 83.1667 124.627 82.9211 123.808 83.2076C122.989 83.4942 122.457 84.272 122.457 85.1317V96.5123C122.457 97.6381 123.378 98.5592 124.504 98.5592Z" fill="black"/>
<path d="M146.587 87.1973C147.713 87.1973 148.634 86.2762 148.634 85.1504C148.634 84.0246 147.713 83.1035 146.587 83.1035H140.754C139.628 83.1035 138.707 84.0246 138.707 85.1504V96.531C138.707 97.6568 139.628 98.5779 140.754 98.5779H146.608C147.734 98.5779 148.655 97.6773 148.655 96.5515C148.655 95.4257 147.734 94.5046 146.608 94.5046H142.801V92.908H146.587C147.713 92.908 148.634 91.987 148.634 90.8612C148.634 89.7354 147.713 88.8143 146.587 88.8143H142.78V87.2177H146.567L146.587 87.1973Z" fill="black"/>
<path d="M164.519 88.938C164.519 85.7245 161.899 83.084 158.685 83.084H153.445C152.32 83.084 151.398 84.0051 151.398 85.1309V96.5115C151.398 97.6373 152.32 98.5584 153.445 98.5584C154.571 98.5584 155.492 97.6373 155.492 96.5115V94.7716H157.846L161.039 97.8829C161.428 98.2718 161.96 98.456 162.472 98.456C162.984 98.456 163.536 98.2513 163.946 97.842C164.744 97.0232 164.724 95.7337 163.905 94.9559L162.308 93.4002C163.639 92.3359 164.519 90.7598 164.519 88.938ZM155.492 87.1777H158.685C159.668 87.1777 160.425 87.9555 160.425 88.938C160.425 89.9205 159.647 90.6779 158.685 90.6779H155.492V87.1777Z" fill="black"/>
<path d="M135.394 102.242H109.398C108.273 102.242 107.352 103.163 107.352 104.289C107.352 105.415 108.273 106.336 109.398 106.336H135.394C136.52 106.336 137.441 105.415 137.441 104.289C137.441 103.163 136.52 102.242 135.394 102.242Z" fill="black"/>
<path d="M91.5469 102.242C90.9942 102.242 90.4825 102.467 90.0936 102.836C89.7047 103.204 89.5 103.736 89.5 104.289C89.5 104.842 89.7047 105.353 90.0936 105.742C90.4825 106.131 90.9942 106.336 91.5469 106.336C92.0995 106.336 92.6112 106.111 93.0002 105.742C93.3891 105.374 93.5938 104.842 93.5938 104.289C93.5938 103.736 93.3686 103.225 93.0002 102.836C92.6112 102.447 92.0995 102.242 91.5469 102.242Z" fill="black"/>
<path d="M100.043 102.242C99.5108 102.242 98.9786 102.467 98.5897 102.836C98.2008 103.204 97.9961 103.736 97.9961 104.289C97.9961 104.842 98.2213 105.353 98.5897 105.742C98.9786 106.131 99.4903 106.336 100.043 106.336C100.596 106.336 101.107 106.111 101.496 105.742C101.885 105.353 102.09 104.842 102.09 104.289C102.09 103.736 101.885 103.225 101.496 102.836C101.107 102.447 100.596 102.242 100.043 102.242Z" fill="black"/>
<path d="M144.746 102.242C144.193 102.242 143.682 102.467 143.293 102.836C142.904 103.204 142.699 103.736 142.699 104.289C142.699 104.842 142.904 105.353 143.293 105.742C143.682 106.131 144.193 106.336 144.746 106.336C145.299 106.336 145.81 106.111 146.199 105.742C146.588 105.353 146.793 104.842 146.793 104.289C146.793 103.736 146.588 103.225 146.199 102.836C145.81 102.447 145.299 102.242 144.746 102.242Z" fill="black"/>
<path d="M153.238 102.242C152.686 102.242 152.174 102.467 151.785 102.836C151.396 103.225 151.191 103.736 151.191 104.289C151.191 104.842 151.417 105.353 151.785 105.742C152.153 106.131 152.686 106.336 153.238 106.336C153.791 106.336 154.303 106.111 154.692 105.742C155.08 105.353 155.285 104.842 155.285 104.289C155.285 103.736 155.06 103.225 154.692 102.836C154.323 102.447 153.791 102.242 153.238 102.242Z" fill="black"/>
<defs>
<clipPath id="clip0_149_61">
<rect width="67.3298" height="67.3298" fill="white" transform="translate(195.301 0.474609) rotate(26.8447)"/>
</clipPath>
<clipPath id="clip1_149_61">
<rect width="57.8283" height="57.8283" fill="white" transform="matrix(-0.965926 0.258819 0.258819 0.965926 56.7539 8.83984)"/>
</clipPath>
</defs>
</svg>
